<svg xmlns="http://www.w3.org/2000/svg" xmlns:xlink="http://www.w3.org/1999/xlink"><symbol id="360" viewBox="0 0 1052 156" xmlns="http://www.w3.org/2000/svg"><style>.aast0{fill:#b3b3b3}</style><path id="aaStroke-1_1_" class="aast0" d="M409.9 145.6c-42.7-1.7-85.5-4.4-128.1-8.4-21.3-2-42.6-4.3-63.8-7.1-21.2-2.8-42.4-5.9-63.4-9.7-21.1-3.8-42-8.2-62.7-13.7-10.3-2.8-20.6-5.8-30.7-9.4-10.1-3.5-20.1-7.6-29.5-12.7-4.7-2.6-9.3-5.4-13.5-8.8-2.1-1.7-4-3.6-5.8-5.6-1.8-2-3.3-4.3-4.3-6.8-1.1-2.5-1.6-5.3-1.4-8 .2-2.7 1.1-5.4 2.4-7.7 2.7-4.8 6.7-8.5 11-11.7 8.6-6.4 18.4-10.9 28.3-15 9.9-4 20.1-7.3 30.4-10.3-10.2 3.1-20.4 6.5-30.3 10.5-9.8 4.1-19.6 8.7-28.1 15.1-4.2 3.2-8.2 6.9-10.7 11.6-1.2 2.3-2.1 4.8-2.3 7.5-.1 2.6.4 5.2 1.4 7.6 2.1 4.8 5.9 8.7 10 12.1 4.1 3.3 8.7 6.1 13.4 8.6 9.4 5 19.4 8.9 29.4 12.4 10.1 3.5 20.4 6.4 30.7 9.1 20.7 5.3 41.6 9.5 62.7 13.2 21 3.6 42.2 6.6 63.4 9.2 21.2 2.6 42.5 4.8 63.7 6.6 42.6 3.7 85.2 6 127.9 7.4l-.1 4z"/><path id="aaStroke-5_1_" class="aast0" d="M977.1 11.6c13.8 4.1 27.4 8.8 40.4 15.2 6.4 3.2 12.7 6.9 18.3 11.5 2.7 2.4 5.3 5 7.3 8s3.3 6.6 3.3 10.3c0 3.7-1.4 7.2-3.3 10.3-2 3.1-4.5 5.7-7.3 8.1-2.7 2.4-5.7 4.4-8.8 6.3-1.6.9-3.1 1.9-4.7 2.7l-2.4 1.3-2.4 1.2c-13 6.5-26.7 11.3-40.5 15.5-6.9 2.1-13.8 4-20.8 5.8-7 1.8-14 3.5-21 5-14.1 3.1-28.2 5.9-42.4 8.3-28.4 4.9-57 8.8-85.6 12-57.3 6.4-114.8 10.2-172.4 12.2-57.6 2-115.2 2.3-172.9.8l.1-4c57.5 1.8 115.1 1.9 172.6.2s115-5.2 172.3-11.2c28.6-3.1 57.2-6.7 85.6-11.5 14.2-2.4 28.3-5 42.4-8.1 7-1.5 14-3.1 21-4.9 7-1.7 13.9-3.6 20.8-5.7 13.8-4.1 27.4-8.8 40.3-15.2l2.4-1.2 2.4-1.3c1.6-.8 3.1-1.8 4.7-2.7 3-1.9 6-3.9 8.7-6.2 2.7-2.3 5.2-4.9 7.2-7.9 1.9-3 3.2-6.4 3.3-10 0-3.6-1.2-7-3.1-10-1.9-3-4.4-5.6-7.1-8-5.5-4.7-11.7-8.3-18.1-11.6-12.9-6.2-26.6-11-40.3-15.2z"/><g transform="translate(415 136)"><path id="aaFill-1" class="aast0" d="M18.1 11.2c-1.8 0-2.8-1.2-2.8-3V8c.8-.4 1.7-.6 2.8-.6 1.5 0 2.5.6 2.5 1.7s-.8 2.1-2.5 2.1zm.2-5.5c-1.1 0-2 .3-2.8.7.3-1.6 1.5-2.6 3.7-2.6 1.1 0 2.3.3 3.1.5V2.6c-.8-.3-1.9-.5-3.1-.5C15 2.1 13 4.2 13 7.9c0 3.2 1.8 4.9 5.1 4.9s5-1.7 5-3.6C23 7 21.3 5.7 18.3 5.7z"/><path id="aaFill-2" class="aast0" d="M39.3 1.8c.9 0 1.6.7 1.6 1.5s-.7 1.6-1.6 1.6c-.8 0-1.6-.7-1.6-1.6.1-.8.8-1.5 1.6-1.5zm0 4.5c1.7 0 3.1-1.3 3.1-3 0-1.6-1.4-3-3.1-3-1.7 0-3.1 1.3-3.1 3s1.4 3 3.1 3z"/><path id="aaFill-4" class="aast0" d="M30.3 3.8c2.1 0 2.9 1.4 2.9 3.6s-.8 3.6-2.9 3.6c-2.1 0-2.9-1.5-2.9-3.6s.7-3.6 2.9-3.6zm-.1 9c3.9 0 5.2-2.6 5.2-5.4 0-2.8-1.3-5.3-5.2-5.3-3.9 0-5.3 2.6-5.3 5.4.1 2.8 1.4 5.3 5.3 5.3z"/><path id="aaFill-5" class="aast0" d="M10.9 9.7c0-1.1-.8-2-2.5-2.5 1.3-.5 1.9-1.3 1.9-2.3 0-1.7-1.7-2.8-4.6-2.8-1.5 0-2.7.3-3.6.8v1.7c.9-.4 2.3-.7 3.4-.7C7 3.9 8 4.4 8 5.1c0 .8-.7 1.3-2.4 1.3H4.3V8h1.3c2 0 2.9.8 2.9 1.6s-1 1.5-2.8 1.5c-1.5 0-2.8-.3-3.7-.6v1.7c.9.3 2.1.6 3.8.6 3.4 0 5.1-1.4 5.1-3.1"/></g></symbol><symbol id="360-icon" viewBox="0 0 122.88 65.79" xmlns="http://www.w3.org/2000/svg"><style>.abst0{fill-rule:evenodd;clip-rule:evenodd}</style><path class="abst0" d="M13.37 31.32c-22.23 12.2 37.65 19.61 51.14 19.49v-7.44l11.21 11.2-11.21 11.22v-6.97C37.4 59.85-26.41 42.4 11.97 27.92c.36 1.13.8 2.2 1.3 3.2l.1.2zm94.99-23.01c0-2.61.47-4.44 1.41-5.48s2.37-1.56 4.3-1.56c.92 0 1.69.12 2.28.34.59.23 1.08.52 1.45.89.38.36.67.75.89 1.15.22.4.39.87.52 1.41.26 1.02.38 2.09.38 3.21 0 2.49-.42 4.32-1.27 5.47-.84 1.15-2.29 1.73-4.36 1.73-1.15 0-2.09-.19-2.8-.55-.71-.37-1.3-.91-1.75-1.62-.33-.51-.59-1.2-.77-2.07-.19-.89-.28-1.85-.28-2.92zm-81.89 2.18l-9-1.6c.75-2.86 2.18-5.06 4.31-6.59C23.9.77 26.91 0 30.8 0c4.47 0 7.69.83 9.69 2.5 1.99 1.67 2.98 3.77 2.98 6.29 0 1.48-.41 2.82-1.21 4.01-.81 1.2-2.02 2.25-3.65 3.15 1.32.33 2.34.71 3.03 1.15 1.14.7 2.02 1.63 2.65 2.77.63 1.15.95 2.51.95 4.1 0 2-.52 3.91-1.56 5.75-1.05 1.83-2.55 3.24-4.51 4.23-1.96.99-4.54 1.48-7.74 1.48-3.11 0-5.57-.37-7.36-1.1-1.8-.73-3.28-1.8-4.44-3.22-1.16-1.41-2.05-3.19-2.67-5.33l9.53-1.27c.38 1.92.95 3.26 1.74 4.01.78.74 1.78 1.12 3 1.12 1.27 0 2.33-.47 3.18-1.4.85-.93 1.27-2.18 1.27-3.74 0-1.59-.41-2.82-1.22-3.69-.81-.87-1.92-1.31-3.32-1.31-.74 0-1.77.18-3.07.56l.49-6.81c.52.08.93.12 1.22.12 1.23 0 2.26-.4 3.08-1.19.82-.79 1.24-1.72 1.24-2.81 0-1.05-.31-1.88-.93-2.49-.62-.62-1.48-.93-2.55-.93-1.12 0-2.02.34-2.72 1.01-.71.66-1.18 1.84-1.43 3.53zm48.68-2.22l-9.48 1.16c-.25-1.32-.66-2.24-1.24-2.78-.59-.54-1.31-.81-2.16-.81-1.54 0-2.74.77-3.59 2.33-.62 1.13-1.09 3.52-1.38 7.19 1.14-1.16 2.31-2.01 3.5-2.56 1.2-.55 2.59-.83 4.16-.83 3.06 0 5.64 1.09 7.75 3.27 2.11 2.19 3.17 4.96 3.17 8.31 0 2.26-.53 4.32-1.6 6.2-1.07 1.87-2.55 3.29-4.44 4.25-1.9.96-4.27 1.44-7.13 1.44-3.43 0-6.18-.58-8.25-1.76-2.07-1.17-3.73-3.03-4.97-5.59-1.24-2.56-1.86-5.95-1.86-10.18 0-6.18 1.3-10.71 3.91-13.59C54.13 1.44 57.74 0 62.36 0c2.73 0 4.88.31 6.46.94 1.58.63 2.9 1.56 3.94 2.76 1.05 1.22 1.85 2.74 2.39 4.57zM57.62 23.55c0 1.86.47 3.31 1.4 4.36.94 1.05 2.08 1.58 3.44 1.58 1.25 0 2.3-.48 3.14-1.43.84-.95 1.26-2.37 1.26-4.26 0-1.93-.44-3.41-1.31-4.42-.88-1.01-1.96-1.52-3.26-1.52-1.32 0-2.44.49-3.34 1.48-.89.98-1.33 2.38-1.33 4.21zm20.29-5.98c0-6.51 1.17-11.07 3.52-13.67C83.77 1.3 87.35 0 92.14 0c2.31 0 4.2.29 5.68.85 1.48.57 2.69 1.31 3.62 2.22.94.91 1.68 1.87 2.21 2.87.54 1.01.97 2.18 1.3 3.52.64 2.55.96 5.22.96 8 0 6.22-1.05 10.76-3.16 13.64-2.1 2.88-5.72 4.32-10.87 4.32-2.88 0-5.21-.46-6.99-1.38-1.78-.92-3.23-2.27-4.37-4.05-.82-1.26-1.47-2.98-1.93-5.17-.45-2.18-.68-4.6-.68-7.25zm9.43.02c0 4.36.38 7.34 1.16 8.94.77 1.6 1.89 2.39 3.36 2.39.97 0 1.8-.34 2.51-1.01.71-.68 1.23-1.76 1.56-3.22.34-1.47.5-3.75.5-6.85 0-4.55-.38-7.6-1.16-9.18-.77-1.56-1.93-2.35-3.47-2.35-1.58 0-2.71.8-3.42 2.39-.69 1.61-1.04 4.57-1.04 8.89zm24.8-9.27c0 1.75.15 2.94.46 3.58.31.64.76.96 1.35.96.39 0 .72-.13 1.01-.41.28-.27.49-.7.63-1.29.13-.59.2-1.5.2-2.74 0-1.82-.15-3.05-.46-3.68-.31-.63-.77-.94-1.39-.94-.63 0-1.09.32-1.37.96-.29.64-.43 1.83-.43 3.56zm-2.84 21.91c10.56 5.37 8.04 12.99-10.66 17.62-5.3 1.31-11.29 2.5-17.86 2.99v6.05c7.31-.51 14.11-2.19 20.06-3.63 28.12-6.81 27.14-18.97 9.36-25.83-.25.99-.55 1.92-.9 2.8z"/></symbol><symbol viewBox="0 0 48 48" id="DSB-Ducati-Icon-Calendar-48x48" xmlns="http://www.w3.org/2000/svg"><g fill="#fff"><path d="M35 14v4h-6v-4H19v4h-6v-4h-2v21h26V14h-2zm0 19H13V20h22v13z"/><path d="M15 12h2v4h-2zM31 12h2v4h-2zM24 31s2-5 5-6v-2c-3 1-5 5-5 5s-2.667-4.16-7-6v2c3.467.92 7 7 7 7z"/></g></symbol><symbol viewBox="0 0 48 48" id="DSB-Ducati-Icon-Calendar-Round-48x48" xmlns="http://www.w3.org/2000/svg"><circle cx="24" cy="24" r="20" fill-rule="evenodd" clip-rule="evenodd" fill="#bbbcbc"/><g fill="#0f0f0f"><path d="M35 14v4h-6v-4H19v4h-6v-4h-2v21h26V14h-2zm0 19H13V20h22v13z"/><path d="M15 12h2v4h-2zM31 12h2v4h-2zM24 31s2-5 5-6v-2c-3 1-5 5-5 5s-2.667-4.16-7-6v2c3.467.92 7 7 7 7z"/></g></symbol><symbol viewBox="0 0 48 48" id="DSB-Ducati-Icon-Oil-48x48" xmlns="http://www.w3.org/2000/svg"><path d="M10 19l3 2v2l-4-2 1-2zm14.637 5l1.373 1.414.874.901 1.162-.435 4.469-1.674L28.443 29H15v-5h9.637M7 22l6 3v6h16.324l6.794-8 .971-1 1.941 1 .97-1-1.941-2-10.676 4-1.941-2H21.56v-2h1.94v-2h-5.824v2h1.941v2H15v-2l-6-3-2 5z" fill="#fff"/></symbol><symbol viewBox="0 0 48 48" id="DSB-Ducati-Icon-Oil-Round-48x48" xmlns="http://www.w3.org/2000/svg"><circle cx="24" cy="24" r="20" fill-rule="evenodd" clip-rule="evenodd" fill="#bbbcbc"/><path d="M10 19l3 2v2l-4-2 1-2zm14.637 5l1.373 1.414.874.901 1.162-.435 4.469-1.674L28.443 29H15v-5h9.637M7 22l6 3v6h16.324l6.794-8 .971-1 1.941 1 .97-1-1.941-2-10.676 4-1.941-2H21.56v-2h1.94v-2h-5.824v2h1.941v2H15v-2l-6-3-2 5z" fill="#0f0f0f"/></symbol><symbol viewBox="0 0 48 48" id="DSB-Ducati-Icon-Wrench-48x48" xmlns="http://www.w3.org/2000/svg"><path d="M12.422 19.5c1.313 0 2.54.708 3.29 1.897.385.694 1.027 1.091 1.77 1.091l13.041-.002c.724 0 1.382-.399 1.741-1.048.405-.646.891-1.123 1.483-1.457a3.66 3.66 0 0 1 1.791-.477c.418 0 .829.072 1.223.213L33.952 21.3c-.686.387-.95 1.286-.591 2.016l1.469 2.991c.174.355.476.622.837.74a1.346 1.346 0 0 0 1.086-.109l2.609-1.47c-.332 1.096-1.03 2.016-1.979 2.551a3.64 3.64 0 0 1-1.804.48c-1.312 0-2.539-.708-3.29-1.896-.385-.695-1.024-1.091-1.765-1.091l-13.046.001c-.724 0-1.383.4-1.741 1.049-.405.646-.891 1.123-1.484 1.457a3.599 3.599 0 0 1-3.014.263l2.809-1.583c.686-.387.95-1.286.591-2.016l-1.504-3.062a1.44 1.44 0 0 0-.846-.743 1.346 1.346 0 0 0-1.094.122l-2.54 1.479c.338-1.072 1.029-1.972 1.963-2.499a3.63 3.63 0 0 1 1.804-.48m0-1.5c-.836 0-1.682.212-2.47.656-1.806 1.018-2.935 3.056-2.946 5.317L7 25.154l4.878-2.84 1.504 3.062-4.976 2.805.873.686c.955.749 2.068 1.13 3.184 1.13a4.99 4.99 0 0 0 2.456-.653c.807-.456 1.479-1.108 2.028-2a.574.574 0 0 1 .53-.33l13.046-.001c.234 0 .422.115.558.377 1.041 1.682 2.748 2.61 4.497 2.61a5.01 5.01 0 0 0 2.47-.656c1.806-1.018 2.935-3.055 2.946-5.317L41 22.846l-4.913 2.769-1.469-2.991 4.976-2.806-.874-.685c-.954-.749-2.067-1.129-3.182-1.129a5 5 0 0 0-2.456.652c-.807.456-1.479 1.108-2.028 2.001a.575.575 0 0 1-.53.33l-13.041.002c-.234 0-.429-.118-.563-.378C15.879 18.928 14.172 18 12.422 18z" fill="#fff"/></symbol><symbol viewBox="0 0 48 48" id="DSB-Ducati-Icon-Wrench-Round-48x48" xmlns="http://www.w3.org/2000/svg"><circle cx="24" cy="24" r="20" fill-rule="evenodd" clip-rule="evenodd" fill="#bbbcbc"/><path d="M12.422 19.5c1.313 0 2.54.708 3.29 1.897.385.694 1.027 1.091 1.77 1.091l13.041-.002c.724 0 1.382-.399 1.741-1.048.405-.646.891-1.123 1.483-1.457a3.66 3.66 0 0 1 1.791-.477c.418 0 .829.072 1.223.213L33.952 21.3c-.686.387-.95 1.286-.591 2.016l1.469 2.991c.174.355.476.622.837.74a1.346 1.346 0 0 0 1.086-.109l2.609-1.47c-.332 1.096-1.03 2.016-1.979 2.551a3.64 3.64 0 0 1-1.804.48c-1.312 0-2.539-.708-3.29-1.896-.385-.695-1.024-1.091-1.765-1.091l-13.046.001c-.724 0-1.383.4-1.741 1.049-.405.646-.891 1.123-1.484 1.457a3.599 3.599 0 0 1-3.014.263l2.809-1.583c.686-.387.95-1.286.591-2.016l-1.504-3.062a1.44 1.44 0 0 0-.846-.743 1.346 1.346 0 0 0-1.094.122l-2.54 1.479c.338-1.072 1.029-1.972 1.963-2.499a3.63 3.63 0 0 1 1.804-.48m0-1.5c-.836 0-1.682.212-2.47.656-1.806 1.018-2.935 3.056-2.946 5.317L7 25.154l4.878-2.84 1.504 3.062-4.976 2.805.873.686c.955.749 2.068 1.13 3.184 1.13a4.99 4.99 0 0 0 2.456-.653c.807-.456 1.479-1.108 2.028-2a.574.574 0 0 1 .53-.33l13.046-.001c.234 0 .422.115.558.377 1.041 1.682 2.748 2.61 4.497 2.61a5.01 5.01 0 0 0 2.47-.656c1.806-1.018 2.935-3.055 2.946-5.317L41 22.846l-4.913 2.769-1.469-2.991 4.976-2.806-.874-.685c-.954-.749-2.067-1.129-3.182-1.129a5 5 0 0 0-2.456.652c-.807.456-1.479 1.108-2.028 2.001a.575.575 0 0 1-.53.33l-13.041.002c-.234 0-.429-.118-.563-.378C15.879 18.928 14.172 18 12.422 18z" fill="#0f0f0f"/></symbol><symbol viewBox="0 0 48 48" id="add" xmlns="http://www.w3.org/2000/svg"><g fill="#c00"><path d="M24.104 37h-.207a1.4 1.4 0 0 1-1.396-1.396V12.396A1.4 1.4 0 0 1 23.897 11h.207a1.4 1.4 0 0 1 1.396 1.396v23.207A1.4 1.4 0 0 1 24.104 37z"/><path d="M35.604 25.5H12.396A1.4 1.4 0 0 1 11 24.104v-.207a1.4 1.4 0 0 1 1.396-1.396h23.207a1.4 1.4 0 0 1 1.396 1.396v.207a1.398 1.398 0 0 1-1.395 1.396z"/></g></symbol><symbol viewBox="0 0 48 48" id="add-round" xmlns="http://www.w3.org/2000/svg"><circle cx="24" cy="24" r="20" fill="#0f0f0f"/><path d="M24.104 37h-.207a1.4 1.4 0 0 1-1.396-1.396V12.396A1.4 1.4 0 0 1 23.897 11h.207a1.4 1.4 0 0 1 1.396 1.396v23.207A1.4 1.4 0 0 1 24.104 37z" fill="#fafafa"/><path d="M35.604 25.5H12.396A1.4 1.4 0 0 1 11 24.104v-.207a1.4 1.4 0 0 1 1.396-1.396h23.207a1.4 1.4 0 0 1 1.396 1.396v.207a1.398 1.398 0 0 1-1.395 1.396z" fill="#fafafa"/></symbol><symbol class="aksvg-icon" viewBox="0 0 20 20" id="alert"><path d="M18.344 16.174l-7.98-12.856a.44.44 0 0 0-.758 0L1.627 16.217c.339-.543-.603.668.384.682h15.991c.891-.008.165-.938.342-.725m-15.555-.166l7.196-11.6 7.224 11.6H2.789zm7.666-8.456v3.561c0 .244-.199.445-.443.445s-.443-.201-.443-.445V7.552c0-.245.199-.445.443-.445s.443.2.443.445m-.443 4.887c-.733 0-1.33.6-1.33 1.336s.597 1.336 1.33 1.336c.734 0 1.33-.6 1.33-1.336s-.596-1.336-1.33-1.336m0 1.782a.444.444 0 0 1 0-.89.446.446 0 0 1 0 .89"/></symbol><symbol viewBox="0 0 35 43" id="arrow-anticlockwise" xmlns="http://www.w3.org/2000/svg"><path d="M4.7 37.9c1.2 1.3 2.5 2.3 4 3.2l1.7-3.1c-1.2-.7-2.3-1.6-3.2-2.6l-2.5 2.5zM0 29.6c.4 1.7 1 3.3 1.8 4.8l2.9-1.8c-.6-1.2-1.1-2.6-1.5-3.9l-3.2.9zM16.7 6.6V0L8.5 8.1l8.2 8.1V9.9c8.3.1 15 6.7 15 14.9s-6.7 14.9-15 14.9c-1.3 0-2.6-.2-3.9-.5l-.9 3.2c1.5.4 3.1.6 4.7.6C26.8 43 35 34.8 35 24.8S26.8 6.7 16.7 6.6"/></symbol><symbol viewBox="0 0 35 43" id="arrow-clockwise" xmlns="http://www.w3.org/2000/svg"><path d="M30.3 37.9c-1.2 1.3-2.5 2.3-4 3.2L24.6 38c1.2-.7 2.3-1.6 3.2-2.6l2.5 2.5zM35 29.6c-.4 1.7-1 3.3-1.8 4.8l-2.9-1.8c.6-1.2 1.1-2.6 1.5-3.9l3.2.9zM18.3 6.6V0l8.2 8.1-8.2 8.1V9.9c-8.3.1-15 6.7-15 14.9s6.7 14.9 15 14.9c1.3 0 2.6-.2 3.9-.5l.9 3.2c-1.5.4-3.1.6-4.7.6C8.2 43 0 34.8 0 24.8S8.2 6.7 18.3 6.6"/></symbol><symbol viewBox="0 0 28 14" id="arrow-small-down" xmlns="http://www.w3.org/2000/svg"><path d="M0 1.6C0 1.2.1.8.4.5 1.1-.2 2-.3 2.9.4L14 10 25.2.4c.7-.7 1.8-.5 2.3.1.7.7.5 1.7-.1 2.4L15.1 13.6c-.7.5-1.6.5-2.3 0L.4 3C.1 2.6 0 2 0 1.6z"/></symbol><symbol viewBox="0 0 12 22" id="arrow-small-left" xmlns="http://www.w3.org/2000/svg"><path d="M10 21.2c-.3 0-.7-.1-.9-.4l-8-9c-.4-.5-.4-1.2 0-1.7l8-9c.5-.5 1.3-.6 1.8-.1s.6 1.2.1 1.8L3.7 11l7.3 8.2c.5.5.4 1.3-.1 1.8-.3.1-.6.2-.9.2z"/></symbol><symbol viewBox="0 0 12 22" id="arrow-small-right" xmlns="http://www.w3.org/2000/svg"><path d="M2 21.2c-.3 0-.6-.1-.8-.3-.5-.5-.6-1.2-.1-1.8L8.3 11 1.1 2.8c-.5-.5-.4-1.3.1-1.7.5-.5 1.3-.4 1.8.1l8 9c.4.5.4 1.2 0 1.7l-8 9c-.3.2-.7.3-1 .3z"/></symbol><symbol viewBox="0 0 28 14" id="arrow-small-up" xmlns="http://www.w3.org/2000/svg"><path d="M.4 11L12.7.4c.7-.5 1.6-.5 2.3 0L27.4 11c.7.7.8 1.7.1 2.4-.5.7-1.6.8-2.3.1L14 4 2.9 13.6c-.8.7-1.8.5-2.5-.1-.3-.3-.4-.7-.4-1.1s.1-1 .4-1.4z"/></symbol><symbol viewBox="0 0 22 39" id="arrow-trigger" xmlns="http://www.w3.org/2000/svg"><path d="M11 38.5c-.4 0-.7-.1-1-.4l-9-8C.4 29.5.3 28.6.9 28c.5-.6 1.5-.7 2.1-.1l8 7.1 8-7.1c.6-.6 1.6-.5 2.1.1.6.6.5 1.6-.1 2.1l-9 8c-.3.3-.6.4-1 .4zM20 11.5c-.4 0-.7-.1-1-.4L11 4l-8 7.1c-.6.5-1.6.5-2.1-.1-.6-.6-.5-1.6.1-2.1l9-8c.6-.5 1.4-.5 2 0l9 8c.6.6.7 1.5.1 2.1-.3.3-.7.5-1.1.5z"/></symbol><symbol viewBox="0 0 18 24" id="arrow2-right" xmlns="http://www.w3.org/2000/svg"><g transform="translate(-659 -308)" fill="none" fill-rule="evenodd"><path d="M0 0h750v1957H0z"/><path d="M662.862 331.17L659 327.308l2.574-7.723-2.574-7.723 3.862-3.862 14.16 11.585z" fill="#666" fill-rule="nonzero"/></g></symbol><symbol viewBox="0 0 102 9" id="asse" xmlns="http://www.w3.org/2000/svg"><path d="M1 4h100v1H1z"/><path d="M5.5 9c-.1 0-.2 0-.3-.1l-5-4c-.1-.1-.2-.2-.2-.4s.1-.3.2-.4l5-4c.2-.2.5-.1.7.1.2.2.1.5-.1.7L1.3 4.5l4.5 3.6c.2.2.3.5.1.7-.1.1-.3.2-.4.2zM96.5 9c-.1 0-.3-.1-.4-.2-.2-.2-.1-.5.1-.7l4.5-3.6L96.2.9c-.2-.2-.2-.5-.1-.7.2-.2.5-.2.7-.1l5 4c.1.1.2.2.2.4s-.1.3-.2.4l-5 4c-.1.1-.2.1-.3.1z"/></symbol><symbol viewBox="0 0 18 18" id="avatar-empty" xmlns="http://www.w3.org/2000/svg"><path d="M10.7 7c0 .9-.8 1.7-1.7 1.7S7.3 7.9 7.3 7c0-1 .8-1.7 1.7-1.7s1.7.7 1.7 1.7zm1.2 0c0-1.6-1.3-2.9-2.9-2.9S6.1 5.4 6.1 7c0 .9.4 1.7 1 2.2-1.5.7-2.5 2.2-2.5 4h1.2C5.8 11.4 7.2 10 9 10s3.2 1.4 3.2 3.2h1.2c0-1.8-1-3.3-2.5-4 .6-.6 1-1.4 1-2.2zM0 9c0 5 4 9 9 9s9-4 9-9-4-9-9-9-9 4-9 9zm16.8 0c0 4.3-3.5 7.8-7.8 7.8S1.2 13.3 1.2 9 4.7 1.2 9 1.2s7.8 3.5 7.8 7.8z"/></symbol><symbol viewBox="0 0 11 11" id="b-arrow" xmlns="http://www.w3.org/2000/svg"><title>Scelta</title><g fill="#C00" fill-rule="evenodd"><path d="M5 6h1v5H5z"/><path d="M9.976.818l.707.707-4.95 4.95-.707-.707z"/><path d="M1.025.817l-.707.707 4.95 4.95.707-.707z"/><path d="M1 1H0v3.5h1z"/><path d="M0 .5v1h4v-1z"/><g transform="matrix(-1 0 0 1 11 0)"><path d="M1 1H0v3.5h1z"/><path d="M0 .5v1h4v-1z"/></g></g></symbol><symbol viewBox="0 0 75 75" id="baloon" xmlns="http://www.w3.org/2000/svg"><path d="M37.6 54c-.7 0-1.2-.6-1.2-1.2 0-.7.6-1.3 1.2-1.3 12.5-.1 22.6-8.2 22.6-18.2C60.3 23.2 50.1 15 37.5 15 25 15 14.7 23.2 14.7 33.3c0 6.9 5 13.4 12.8 16.4.6.3 1 1 .7 1.6-.3.6-1 1-1.6.7-8.7-3.4-14.4-10.8-14.4-18.7 0-11.4 11.3-20.7 25.3-20.7s25.3 9.3 25.3 20.7c0 11.3-11.3 20.6-25.2 20.7z"/><path d="M24.7 62.5c-.4 0-.8-.2-1.1-.6-.3-.4-.3-1 0-1.4 1.4-2 2.2-5.7 2.1-9.7 0-.7.5-1.3 1.2-1.3s1.3.5 1.3 1.2c.1 3.2-.4 6.2-1.3 8.6 4.6-1.5 7.3-4.4 9.6-7.4.4-.6 1.2-.7 1.8-.2.6.4.7 1.2.2 1.8-2.9 3.9-6.6 7.7-13.7 9h-.1z"/></symbol><symbol viewBox="0 0 23 25" id="bell" xmlns="http://www.w3.org/2000/svg"><title>Fill 1</title><path d="M2.957 20.222l1.198-1.166a.85.85 0 0 0 .256-.612v-8.277c0-3.111 2.14-5.834 5.22-6.64a.908.908 0 0 0 .656-.721 1.222 1.222 0 0 1 1.226-1.056c.627 0 1.17.444 1.226 1.056.029.36.286.638.656.722 3.052.805 5.22 3.555 5.22 6.639v8.277a.85.85 0 0 0 .256.612l1.198 1.166H2.957zm9.754 1.834c0 .666-.542 1.194-1.226 1.194-.685 0-1.227-.528-1.227-1.194v-.112h2.51c-.029.056-.057.084-.057.112zM22.75 20.5l-2.424-2.417v-7.916c0-3.695-2.453-6.973-5.99-8.167-.399-1.167-1.54-2-2.851-2-1.312 0-2.453.833-2.853 2-3.565 1.167-5.989 4.472-5.989 8.167v7.916l-2.395 2.39c-.257.25-.314.61-.172.944a.87.87 0 0 0 .827.527h7.615v.112C8.461 23.694 9.83 25 11.485 25c1.654 0 3.023-1.306 3.023-2.944v-.112h7.615a.899.899 0 0 0 .827-.527c.114-.306.028-.667-.2-.917z" fill="#666" fill-rule="evenodd"/></symbol><symbol viewBox="0 0 27 32" id="bike-check" xmlns="http://www.w3.org/2000/svg"><path d="M10 26h-.2v-5.5c0-.4-.4-.8-.8-.8h-.1c-.4 0-.7.4-.7.8V25.9H7.9v-.1C5.1 22.3 3.2 16.6 3.2 15c-.1-2.3 1.6-4 1.7-4 .1 0 .1-.1.1-.3 0-.2-.1-.3-.2-.4-.1-.1-.3-.2-.5-.2s-.4.1-.5.2c-.1.1-2.1 2-2 4.8.1 2.1 2.3 8.9 5.8 12.4.1.1.3.2.4.2h.1v3.5c0 .4.4.8.8.8H9c.4 0 .7-.4.7-.8v-3.4h.1c.2 0 .3-.1.4-.2.9-.9 1.7-2 2.5-3.5l-.7-1.5c-.5 1.3-1.3 2.5-2 3.4zM23 16.3c-.2 0-.3.1-.4.2L19.1 20l-1.6-1.6c-.1-.1-.2-.2-.4-.2s-.3.1-.4.2c-.1.1-.2.2-.2.4s.1.3.2.4l2 2c.1.1.2.2.4.2s.3-.1.4-.2l3.9-3.9c.1-.1.2-.2.2-.4s-.1-.3-.2-.4c-.1-.2-.3-.2-.4-.2z"/><path d="M25 13.9c-1.3-1.3-3.1-2-4.9-2-3.8 0-6.9 3.1-6.9 6.9s3.1 6.9 6.9 6.9c3.8 0 6.9-3.1 6.9-6.9 0-1.9-.7-3.6-2-4.9zm-4.9 10.7c-3.2 0-5.8-2.6-5.8-5.8 0-3.2 2.6-5.8 5.8-5.8 3.2 0 5.8 2.6 5.8 5.8 0 3.2-2.6 5.8-5.8 5.8zM3.7 8.1c.7.7 1.5 1.2 2.6 1.5.5.1.9.4 1.3.7.4.3.9.7 1.5.7s1-.4 1.5-.7c.4-.3.8-.6 1.3-.7 1-.3 1.8-.8 2.5-1.4l.1-.2 2.7 1h.2c.2 0 .4-.1.5-.4.1-.1 0-.3 0-.4-.1-.1-.2-.2-.4-.2l-2.3-.9.1-.2c.1-.1.1-.2.1-.3.4-1 .4-2.1-.2-3.1-.4-.6-1.1-1-1.6-1.2-.2-.2-.6-.3-.7-.5C11.3.2 10.2 0 9.1 0 8 0 6.9.2 5.3 1.8c-.2.2-.5.3-.8.5-.6.3-1.3.6-1.6 1.2-.5.9-.6 2-.2 3.1 0 .1.1.2.1.2l.1.2L.4 8c-.2 0-.3.1-.3.3-.1.1-.1.2-.1.4.1.2.3.3.6.3h.2l2.9-.9zm.2-4c.2-.3.6-.6 1.1-.8.4-.2.8-.4 1.1-.7 1.4-1.4 2.2-1.4 3-1.5.8 0 1.6.1 3 1.5.3.3.7.5 1.1.7.4.2.9.4 1.1.8.3.6.4 1.3.1 2-.4 1-1.4 1.9-2.8 2.3-.7.2-1.2.6-1.7.9-.4.3-.6.5-.8.5-.2 0-.4-.2-.8-.5-.5-.3-1.1-.7-1.7-.9C5.2 8 4.2 7.2 3.8 6.1c-.3-.7-.3-1.4.1-2z"/></symbol><symbol viewBox="0 0 70 70" id="boat-belt" xmlns="http://www.w3.org/2000/svg"><path d="M58.6 56.4l-2.8-2.8-4.6-4.7.1-.1c.4-.5.8-1 1.1-1.4v-.1c2.2-3.1 3.5-6.7 3.9-10.4v-.1c.1-.6.1-1.2.1-1.8 0-.6 0-1.2-.1-1.8v-.1c-.4-3.7-1.7-7.3-3.9-10.4v-.1c-.4-.5-.7-1-1.1-1.4l-.1-.1 4.6-4.7 2.8-2.8c5.3 5.9 8.3 13.4 8.3 21.4 0 8-3 15.5-8.3 21.4zm-2.2 2.2c-3.7 3.4-8 5.8-12.7 7.1-.1 0-.2.1-.4.1-.8.2-1.6.4-2.5.6-.2 0-.4.1-.6.1-.8.1-1.5.3-2.3.3-1 .1-2 .1-3 .1h.1c-7.8 0-15.2-2.9-21-8l7.4-7.5c3.8 3.2 8.6 4.9 13.6 4.9 5.2 0 10.1-1.9 14-5.3l4.6 4.7 2.8 2.9zm-44.7-1.8c-5.5-6-8.6-13.6-8.6-21.8.1-8.2 3.1-15.8 8.7-21.8l7.4 7.5c-3.6 3.9-5.5 8.9-5.6 14.3.1 5.3 2.1 10.3 5.6 14.3l-7.5 7.5zM53.3 35c-.1 4.2-1.5 8.3-4.3 11.7-.3.4-.6.8-1 1.1-.4.4-.8.7-1.2 1.1-3.3 2.8-7.5 4.4-11.8 4.4-4.2 0-8.2-1.4-11.4-4-.5-.4-1.1-.9-1.6-1.4-.2-.2-.4-.5-.6-.7-3-3.3-4.7-7.6-4.7-12.1.1-4.5 1.7-8.8 4.7-12.1.2-.2.4-.5.6-.7.5-.5 1-1 1.6-1.4 3.2-2.6 7.2-4 11.4-4 4.3 0 8.5 1.6 11.8 4.4.4.3.8.7 1.2 1.1.4.4.7.7 1 1.1 2.8 3.2 4.3 7.3 4.3 11.5zM35 3.1c1.1 0 2 0 3 .1.8.1 1.5.2 2.3.3.2 0 .4 0 .6.1.8.2 1.7.4 2.5.6.1 0 .2.1.4.1 4.7 1.3 9 3.8 12.6 7.1l-2.8 2.8L49 19c-3.9-3.4-8.8-5.3-14-5.3-5 0-9.8 1.7-13.6 4.9L14 11.1c5.8-5.2 13.2-8 21-8zM70 35c-.1-8.8-3.3-17.1-9.2-23.5-.3-.4-.7-.8-1-1.1-.4-.4-.8-.7-1.1-1C52.2 3.4 43.8 0 35 0c-8.6 0-16.8 3.2-23.2 8.9-.5.5-1.1.9-1.6 1.4-.2.2-.4.5-.6.7C3.5 17.6.1 26 0 35c.1 9 3.5 17.4 9.6 23.9.2.2.4.5.6.7.5.5 1 1 1.6 1.4 6.4 5.8 14.5 9 23.2 9s17.1-3.4 23.5-9.3c.4-.3.8-.7 1.1-1 .4-.4.7-.8 1-1.1 6.1-6.5 9.3-14.8 9.4-23.6z"/></symbol><symbol viewBox="0 0 13.2 20" id="bookmark" xmlns="http://www.w3.org/2000/svg"><path d="M1.8 17.2l.1-15.4h9.4l.1 15.3-4.2-3.4c-.3-.3-.8-.3-1.1 0l-4.3 3.5zM12.2 0H1C.5 0 .1.4.1.9L0 19.1c0 .3.2.7.5.8.1.1.3.1.4.1.2 0 .4-.1.6-.2l5.1-4.2 5.1 4.2c.3.2.6.3 1 .1.3-.1.5-.5.5-.8L13.1.9c0-.5-.4-.9-.9-.9z"/></symbol><symbol viewBox="0 0 21 18" id="brochure" xmlns="http://www.w3.org/2000/svg"><path d="M19.5 18c-1.1 0-1.7-.6-2.1-1-.5-.5-.9-.9-2.3-.9-1.8 0-2.6.7-3.3 1.3-.4.3-.8.6-1.3.6s-.9-.3-1.3-.7c-.6-.5-1.5-1.3-3.3-1.3-1.4 0-1.8.4-2.3.9-.5.5-1 1-2.1 1-.7.1-1.5-.5-1.5-1.5V3.6c0-.2 0-.3.1-.4C.2 3 2.3 0 5.9 0c2.3 0 3.8.9 4.6 1.6.8-.7 2.3-1.6 4.6-1.6 3.3 0 4.9 1.8 5.6 2.8.1.1.2.2.2.4 0 .1.1.1.1.1V16.8c-.2.7-.7 1.2-1.5 1.2zm-4.4-3.5c2 0 2.8.8 3.4 1.4.4.4.6.6 1 .6V3.8v-.1l-.1-.1c-.5-.8-1.8-2.2-4.3-2.2s-3.7 1.2-4 1.6c-.1.2-.3.3-.6.3-.2 0-.4-.1-.6-.3-.2-.3-1.5-1.6-4-1.6-2.4 0-4 1.8-4.4 2.3v12.6c.5.1.6-.1 1-.5.6-.6 1.4-1.4 3.4-1.4 2.3 0 3.5 1 4.2 1.6l.3.3.3-.3c.9-.4 2.1-1.5 4.4-1.5z"/><path d="M10.5 12.9c-.4 0-.8-.3-.8-.8V5.8c0-.4.3-.8.8-.8s.8.3.8.8v6.3c0 .5-.4.8-.8.8z"/></symbol><symbol viewBox="0 0 46 34" id="camera2" xmlns="http://www.w3.org/2000/svg"><path d="M4.7 7C3.2 7 2 8.2 2 9.8V29c0 1.5 1.2 2.7 2.7 2.7h36.1c1.5 0 2.7-1.2 2.7-2.7V9.8c0-1.5-1.2-2.7-2.7-2.7h-6.4c-.5 0-.9-.4-1-.9L33 3.4v-.1c0-.5-.4-.8-.9-.8H13.4c-.5 0-.9.4-.9.9v.1l-.4 2.7c-.1.5-.5.8-1 .8H4.7zm36.1 26.7H4.7c-1.3 0-2.5-.5-3.4-1.4-.8-.8-1.3-2-1.3-3.3V9.8c0-1.3.5-2.5 1.4-3.3.9-.9 2.1-1.4 3.4-1.4h5.5l.2-1.9c.1-1.6 1.4-2.7 2.9-2.7h18.7C33.7.5 35 1.7 35 3.3l.2 1.8h5.6c2.6 0 4.7 2.1 4.7 4.7V29c0 1.3-.5 2.5-1.4 3.3-.8 1-2 1.4-3.3 1.4z"/><path d="M22.8 13.7c-1.5 0-3 .6-4.1 1.7-1.1 1.1-1.7 2.5-1.7 4.1 0 1.5.6 3 1.7 4.1 1.1 1.1 2.5 1.7 4.1 1.7 1.5 0 3-.6 4.1-1.7 1.1-1.1 1.7-2.5 1.7-4s-.6-3-1.7-4.1a5.54 5.54 0 0 0-4.1-1.8m0 15.4c-2.6 0-5.1-1-6.9-2.8S13 22 13 19.4s1-5 2.8-6.9 4.3-2.8 6.9-2.8 5.1 1 6.9 2.8c1.8 1.8 2.8 4.3 2.8 6.9.1 5.4-4.3 9.7-9.6 9.7M39.6 9.6c.8 0 1.4.6 1.4 1.4 0 .8-.6 1.4-1.4 1.4s-1.4-.6-1.4-1.4c0-.8.6-1.4 1.4-1.4"/></symbol><symbol viewBox="0 0 30 31" id="cert3" xmlns="http://www.w3.org/2000/svg"><path d="M29.3 4.8c-.5-.9-1.3-1.6-2.3-2.1C23.4 1 19.3.1 15 .1 10.6.1 6.6 1 3 2.7c-1.2.5-3 1.9-3 5 0 .4.3.7.7.7.4 0 .7-.3.7-.7 0-1.8.7-3.1 2.1-3.8C7 2.3 10.8 1.5 15 1.5s8 .8 11.4 2.5c1.7.8 2.4 2.5 2.1 5v.2c-.2 1.2-.7 4.8-2.5 8.6-1 2-1.9 3.5-2.9 4.9-.2.3-.1.7.2 1 .1.1.3.1.4.1.2 0 .4-.1.6-.3 1-1.5 2-3.1 3-5.1 2-4 2.5-7.8 2.7-9v-.2c.1-1.8-.1-3.3-.7-4.4M20.5 25.8l-1.1 1c-.7.7-2.3 2.1-3.1 2.5-.6.3-1.2.3-1.4.3-.2 0-.8 0-1.4-.3-.8-.4-2.6-2.1-3.1-2.5-2.8-2.7-4.6-5.2-6.5-9-1-2-1.7-4.1-2.2-6.5-.1-.4-.4-.6-.8-.5-.4.1-.6.4-.6.8.7 2.4 1.5 4.7 2.5 6.8 2 4 3.8 6.6 6.7 9.4 0 0 2.2 2.2 3.4 2.8.9.4 1.7.5 2 .5h.1c.3 0 1.1 0 2-.5 1.1-.6 3.3-2.6 3.4-2.7l1.1-1c.3-.3.3-.7 0-1-.3-.4-.7-.4-1-.1"/><path d="M20.1 11.1c0 .2-.1.4-.3.5l-6.4 5.3c-.1.1-.3.2-.5.2h-.1c-.2 0-.4-.1-.5-.3L10 13.6c-.1-.2-.2-.3-.1-.5 0-.2.1-.3.3-.5.1-.1.3-.1.4-.1.2 0 .5.1.6.3l1.8 2.6 5.8-4.8c.1-.1.3-.2.5-.2s.4.1.6.3c.1 0 .2.2.2.4m-5.1-5c-4.3 0-7.8 3.4-7.8 7.6 0 4.2 3.5 7.6 7.8 7.6s7.8-3.4 7.8-7.6c0-4.2-3.5-7.6-7.8-7.6"/></symbol><symbol viewBox="0 0 26 38" id="cert8" xmlns="http://www.w3.org/2000/svg"><path d="M11.4 18.6c.4 0 .9-.2 1.2-.5l6.7-6.8L16.9 9l-5.5 5.6-2.2-2.2-2.4 2.4 3.3 3.4c.4.3.9.4 1.3.4"/><path d="M18.7 33.6L14 29.7c-.5-.4-1.3-.4-1.8 0l-4.8 3.9v-8.4c3.6 1.8 7.8 1.8 11.3 0v8.4zm-15.5-20C3.2 8 7.6 3.5 13.1 3.5S23 8 23 13.6s-4.4 10.1-9.9 10.1c-5.5-.1-9.9-4.6-9.9-10.1zm22.6 0c0-7.1-5.7-12.9-12.7-13C6.1.6.3 6.4.3 13.5c0 3.7 1.5 7.2 4.2 9.7v13.4c.1.8.7 1.4 1.5 1.4.3 0 .6-.1.9-.3l6.2-5 6.2 5c.6.5 1.5.4 2-.2.2-.3.3-.6.3-.9V23.2c2.7-2.4 4.2-5.9 4.2-9.6z"/></symbol><symbol viewBox="0 0 71 65" id="certified" xmlns="http://www.w3.org/2000/svg"><defs><path id="bfa" d="M0 .896h35.261v46.362H0z"/><path id="bfc" d="M.705.981h25.484v37.4H.705z"/></defs><g fill="none" fill-rule="evenodd" transform="translate(-1 -1)"><text fill="#000" font-family="DucatiStyle-Bold, Ducati Style" font-size="10" font-weight="bold"><tspan x="0" y="64">Ducati Certified</tspan></text><g transform="translate(-12.39)"><g transform="translate(24.39 .342)"><mask id="bfb" fill="#fff"><use xlink:href="#bfa"/></mask><path fill="#FFF" d="M8.435 5.827v2.936a.692.692 0 0 1-.685.697H4.857l3.578-3.633zM31.73.896H9.86c-.382 0-.738.151-1.007.423L.417 9.882A1.45 1.45 0 0 0 0 10.905v32.768c0 1.978 1.584 3.585 3.532 3.585h20.786c.204 0 .37-.167.37-.373v-2.142a.373.373 0 0 0-.37-.374H3.532a.691.691 0 0 1-.686-.696V12.348H7.75c1.946 0 3.53-1.608 3.53-3.585V3.784h20.45c.379 0 .686.314.686.698v6.04a.369.369 0 0 0 .47.359c.677-.2 1.37-.35 2.058-.447a.373.373 0 0 0 .317-.371V4.482c0-1.978-1.584-3.586-3.532-3.586z" mask="url(#bfb)"/></g><g transform="translate(36.585 7.77)"><mask id="bfd" fill="#fff"><use xlink:href="#bfc"/></mask><path fill="#050505" d="M19.11 33.952l-4.778-3.88a1.4 1.4 0 0 0-1.771 0l-4.778 3.88v-8.435a12.439 12.439 0 0 0 11.327 0v8.435zM3.535 13.945c0-5.556 4.438-10.062 9.911-10.062s9.911 4.506 9.911 10.062c0 5.557-4.438 10.062-9.91 10.062C7.974 24 3.542 19.5 3.534 13.945zm22.654 0C26.204 6.8 20.51.997 13.473.981 6.436.966.719 6.746.705 13.89a13.016 13.016 0 0 0 4.247 9.67v13.383a1.427 1.427 0 0 0 1.415 1.439c.322 0 .634-.112.885-.316l6.194-5.032 6.195 5.032a1.4 1.4 0 0 0 1.99-.224c.2-.255.31-.572.31-.9V23.56a12.978 12.978 0 0 0 4.248-9.614z" mask="url(#bfd)"/></g><path fill="#000" d="M48.362 26.764c.443 0 .867-.18 1.18-.497l6.68-6.781-2.361-2.396-5.5 5.582-2.158-2.192-2.36 2.396 3.338 3.391c.314.317.738.497 1.18.497"/></g></g></symbol><symbol viewBox="0 0 14 11" id="check"><path d="M12.573.19a.657.657 0 0 0-.923 0L5.288 6.515a.656.656 0 0 1-.922 0L2.35 4.512a.657.657 0 0 0-.923 0L.19 5.742a.648.648 0 0 0 0 .917l4.176 4.152c.253.252.67.252.922 0l8.522-8.474a.648.648 0 0 0 0-.918L12.573.189z"/></symbol><symbol viewBox="0 0 48 48" id="close" xmlns="http://www.w3.org/2000/svg"><path d="M20.75 23.417l-5.917-7.167c-.167-.167-.25-.417-.25-.667 0-.583.417-1 1-1 .25 0 .417.083.667.25l7.167 6a.907.907 0 0 0 1.25 0l7.167-6c.167-.167.417-.25.667-.25.583 0 1 .417 1 1 0 .25-.083.417-.25.667l-6 7.167a.907.907 0 0 0 0 1.25l6 7.167c.166.166.249.416.249.666 0 .583-.417 1-1 1-.25 0-.417-.083-.667-.25l-7.167-6a.907.907 0 0 0-1.25 0l-7.167 6c-.167.167-.417.25-.667.25-.583 0-1-.417-1-1 0-.25.083-.417.25-.667l6-7.167c.251-.333.251-.916-.082-1.249z" fill="#0f0f0f"/></symbol><symbol viewBox="0 0 16 15" id="comment"><g fill="none" fill-rule="evenodd"><path d="M3.074 13.718c0 .156.116.282.26.282.068 0 .134-.03.183-.083l1.998-2.178h6.633c1.574-.002 2.85-1.393 2.852-3.11V4.11C14.998 2.393 13.722 1.002 12.148 1H3.852C2.278 1.002 1.002 2.393 1 4.11v4.52c.003 1.39.848 2.61 2.074 2.992v2.096z" stroke="#FFF"/><path d="M12.5 4.5h-8m5.5 3H4.5" stroke="#FAFAFA" stroke-linecap="round" stroke-linejoin="round"/></g></symbol><symbol viewBox="0 0 75 75" id="compare" xmlns="http://www.w3.org/2000/svg"><g transform="translate(932 65)"><path d="M-912.1-10.7c-.3 0-.7-.1-.9-.4l-14.1-15.6c-.4-.5-.4-1.2 0-1.7L-913-44c.5-.5 1.3-.6 1.8-.1s.6 1.3.1 1.8l-13.3 14.7 13.3 14.7c.5.5.4 1.3-.1 1.8-.3.3-.6.4-.9.4zM-876.9-10.7c-.3 0-.6-.1-.8-.3-.5-.5-.6-1.3-.1-1.8l13.3-14.7-13.3-14.7c-.5-.5-.4-1.3.1-1.8s1.3-.4 1.8.1l14.1 15.6c.4.5.4 1.2 0 1.7L-876-11.1c-.2.3-.6.4-.9.4z"/><path d="M-862.8-26.3h-63.3c-.7 0-1.2-.6-1.2-1.2s.6-1.2 1.2-1.2h63.3c.7 0 1.2.6 1.2 1.2s-.5 1.2-1.2 1.2z"/></g></symbol><symbol viewBox="0 0 20 22" id="cross" xmlns="http://www.w3.org/2000/svg"><path d="M18 21.2c-.3 0-.7-.1-.9-.4L10 12.9l-7.1 7.9c-.5.5-1.2.6-1.8.1-.5-.5-.6-1.2-.1-1.8L8.3 11 1.1 2.8c-.5-.5-.4-1.3.1-1.7.5-.5 1.3-.4 1.8.1l7 7.9 7.1-7.9c.5-.5 1.3-.6 1.8-.1s.6 1.2.1 1.8L11.7 11l7.3 8.2c.5.5.4 1.3-.1 1.8-.3.1-.6.2-.9.2z"/></symbol><symbol viewBox="0 0 25 30" id="dealer-check" xmlns="http://www.w3.org/2000/svg"><path d="M21 14.7c-.2 0-.3.1-.4.2L17 18.4l-1.6-1.6c-.1-.1-.2-.2-.4-.2s-.3.1-.4.2c-.1.1-.2.2-.2.4s.1.3.2.4l2 2c.1.1.2.2.4.2s.3-.1.4-.2l4-4c.1-.1.2-.2.2-.4s-.1-.3-.2-.4c-.1-.1-.3-.1-.4-.1z"/><path d="M23 12.3c-1.3-1.3-3.1-2.1-5-2.1-3.9 0-7 3.2-7 7 0 3.9 3.1 7 7 7s7-3.2 7-7c0-1.8-.7-3.6-2-4.9zm-5 10.8c-3.2 0-5.9-2.6-5.9-5.9 0-3.2 2.6-5.9 5.9-5.9 3.2 0 5.8 2.6 5.8 5.9.1 3.3-2.6 5.9-5.8 5.9z"/><path d="M17.1 28.6h-5.9l.3-.2.3-.3.1-.1c.1-.1.4-.6.8-1.1.4-.5.8-1.1 1.1-1.5-.3-.2-.6-.4-1-.7-.2.3-.6.9-1 1.4-.3.5-.6.9-.7 1l-.1.1v.1l-.1.1-.1-.1v-.1s0-.1-.1-.1C7 22 4.4 18.2 3.4 16.5c-.4-.7-1.8-3.3-1.8-5.7 0-5.2 4.2-9.4 9.4-9.4 2.2 0 4.3.8 5.9 2.1 1.6 1.3 2.8 3.2 3.2 5.2.3 0 .7.1 1.1.2.1 0 .2 0 .2.1V8.7c-1-5-5.4-8.6-10.5-8.6C4.8 0 0 4.8 0 10.7c0 2.8 1.5 5.5 2 6.3 1.4 2.4 5.4 8 7.5 10.9l.1.1.3.3.3.2h-6c-.2 0-.4.1-.5.2-.1.1-.2.3-.2.5 0 .4.4.7.8.7h12.9c.4 0 .7-.3.7-.7-.1-.3-.4-.6-.8-.6z"/></symbol><symbol viewBox="0 0 39 42" id="doc-add" xmlns="http://www.w3.org/2000/svg"><g transform="translate(0 -1)"><path d="M38.5 9.5h-5.1V4.6h-3.2v4.9h-5.1v3.1h5.1v4.9h3.2v-4.9h5.1z"/><path d="M10.8 6.2v4.2c0 .8-.7 1.5-1.5 1.5H4.9l5.9-5.7zm19.4 31.2c0 .8-.7 1.5-1.6 1.5H4.8c-.9 0-1.6-.7-1.6-1.5V15h6.1c2.6 0 4.7-2.1 4.7-4.6V4.6h8.7V1.5H11.8c-.4 0-.8.2-1.1.4L.5 11.8c-.3.3-.5.7-.5 1.1v24.6C0 40 2.2 42 4.8 42h23.8c2.6 0 4.8-2.1 4.8-4.6V22.9h-3.2v14.5z"/><path d="M9.8 23.5h13.8v-3.1H9.8zM9.8 29.4H18v-3.1H9.8zM20.5 29.4h3.1v-3.1h-3.1z"/></g></symbol><symbol id="doc-confirm" viewBox="0 0 77 82" enable-background="new 0 0 77 82" xmlns="http://www.w3.org/2000/svg"><style>.bnst0{filter:url(#bnAdobe_OpacityMaskFilter)}.bnst1,.bnst2{fill-rule:evenodd;clip-rule:evenodd}.bnst1{fill:#fff}.bnst2{mask:url(#bndoc-confirm-b_1_)}.bnst3{filter:url(#bnAdobe_OpacityMaskFilter_1_)}.bnst4{mask:url(#bndoc-confirm-d_1_);fill-rule:evenodd;clip-rule:evenodd}.bnst5{filter:url(#bnAdobe_OpacityMaskFilter_2_)}.bnst6{mask:url(#bndoc-confirm-d_2_);fill-rule:evenodd;clip-rule:evenodd}.bnst7{filter:url(#bnAdobe_OpacityMaskFilter_3_)}.bnst8{mask:url(#bndoc-confirm-d_3_);fill-rule:evenodd;clip-rule:evenodd}.bnst9{filter:url(#bnAdobe_OpacityMaskFilter_4_)}.bnst10{mask:url(#bndoc-confirm-d_4_);fill-rule:evenodd;clip-rule:evenodd}</style><defs><filter id="bnAdobe_OpacityMaskFilter" filterUnits="userSpaceOnUse" x="0" y=".1" width="64.3" height="81"><feColorMatrix values="1 0 0 0 0 0 1 0 0 0 0 0 1 0 0 0 0 0 1 0"/></filter></defs><mask maskUnits="userSpaceOnUse" x="0" y=".1" width="64.3" height="81" id="bndoc-confirm-b_1_"><g class="bnst0"><path id="bndoc-confirm-a_1_" class="bnst1" d="M0 .1h64.3v81H0z"/></g></mask><path class="bnst2" d="M20.8 9.4v8.3c0 1.7-1.3 3.1-2.9 3.1H9.4L20.8 9.4zm37.3 62.5c0 1.7-1.4 3.1-3.1 3.1H9.2c-1.7 0-3.1-1.4-3.1-3.1v-45h11.7c5 0 9.1-4.1 9.1-9.2V6.2h16.8V.1h-21c-.8 0-1.6.3-2.2.9L.9 20.6c-.6.5-.9 1.3-.9 2.1v49.1C0 76.9 4.1 81 9.2 81H55c5.1 0 9.2-4.1 9.2-9.2v-29H58v29.1z"/><defs><filter id="bnAdobe_OpacityMaskFilter_1_" filterUnits="userSpaceOnUse" x="18.9" y="37.9" width="26.6" height="6.1"><feColorMatrix values="1 0 0 0 0 0 1 0 0 0 0 0 1 0 0 0 0 0 1 0"/></filter></defs><mask maskUnits="userSpaceOnUse" x="18.9" y="37.9" width="26.6" height="6.1" id="bndoc-confirm-d_1_"><g class="bnst3"><path id="bndoc-confirm-c_1_" class="bnst1" d="M0 81.1h77V.1H0z"/></g></mask><path class="bnst4" d="M18.9 44h26.5v-6.1H18.9z"/><defs><filter id="bnAdobe_OpacityMaskFilter_2_" filterUnits="userSpaceOnUse" x="18.9" y="49.6" width="15.7" height="6.1"><feColorMatrix values="1 0 0 0 0 0 1 0 0 0 0 0 1 0 0 0 0 0 1 0"/></filter></defs><mask maskUnits="userSpaceOnUse" x="18.9" y="49.6" width="15.7" height="6.1" id="bndoc-confirm-d_2_"><g class="bnst5"><path id="bndoc-confirm-c_2_" class="bnst1" d="M0 81.1h77V.1H0z"/></g></mask><path class="bnst6" d="M18.9 55.7h15.7v-6.1H18.9z"/><defs><filter id="bnAdobe_OpacityMaskFilter_3_" filterUnits="userSpaceOnUse" x="39.4" y="49.6" width="6" height="6.1"><feColorMatrix values="1 0 0 0 0 0 1 0 0 0 0 0 1 0 0 0 0 0 1 0"/></filter></defs><mask maskUnits="userSpaceOnUse" x="39.4" y="49.6" width="6" height="6.1" id="bndoc-confirm-d_3_"><g class="bnst7"><path id="bndoc-confirm-c_3_" class="bnst1" d="M0 81.1h77V.1H0z"/></g></mask><path class="bnst8" d="M39.4 55.7h6v-6.1h-6z"/><defs><filter id="bnAdobe_OpacityMaskFilter_4_" filterUnits="userSpaceOnUse" x="47" y="7.5" width="29.9" height="23"><feColorMatrix values="1 0 0 0 0 0 1 0 0 0 0 0 1 0 0 0 0 0 1 0"/></filter></defs><mask maskUnits="userSpaceOnUse" x="47" y="7.5" width="29.9" height="23" id="bndoc-confirm-d_4_"><g class="bnst9"><path id="bndoc-confirm-c_4_" class="bnst1" d="M0 81.1h77V.1H0z"/></g></mask><path class="bnst10" d="M58 30.5c1.1 0 2.1-.4 2.9-1.2L77 13.2l-5.7-5.7L58 20.8l-5.2-5.2-5.8 5.7 8.1 8.1c.8.7 1.8 1.1 2.9 1.1"/></symbol><symbol viewBox="0 0 34 27" id="done" xmlns="http://www.w3.org/2000/svg"><path d="M30.3.5c-.6-.6-1.6-.6-2.2 0L12.7 15.8c-.6.6-1.6.6-2.2 0l-4.9-4.9c-.6-.6-1.6-.6-2.2 0l-3 3c-.6.6-.6 1.6 0 2.2l10.1 10.1c.6.6 1.6.6 2.2 0L33.3 5.7c.6-.6.6-1.6 0-2.2l-3-3z"/></symbol><symbol viewBox="0 0 24 24" id="dots" xmlns="http://www.w3.org/2000/svg"><circle cx="12" cy="18" r="2"/><circle cx="12" cy="6" r="2"/><circle cx="12" cy="12" r="2"/></symbol><symbol viewBox="0 0 30.5 32" id="download" xmlns="http://www.w3.org/2000/svg"><path d="M15.2 22.8c-.7 0-1.2-.6-1.2-1.2V1.2c0-.6.6-1.2 1.2-1.2s1.2.6 1.2 1.2v20.3c.1.8-.5 1.3-1.2 1.3z"/><path d="M15.2 22.8c-.3 0-.6-.1-.8-.3l-9.2-8c-.5-.5-.6-1.2-.1-1.8.5-.5 1.2-.6 1.8-.1l8.4 7.3 8.4-7.3c.5-.5 1.3-.4 1.8.1s.4 1.3-.1 1.8l-9.2 8c-.4.2-.7.3-1 .3zM29.2 30.8h-28c-.7 0-1.2-.6-1.2-1.2s.6-1.2 1.2-1.2h28c.7 0 1.2.6 1.2 1.2s-.5 1.2-1.2 1.2z"/></symbol><symbol class="brsvg-icon" viewBox="0 0 20 20" id="email"><path fill="none" d="M16.999 4.975a2.315 2.315 0 0 0-1.604-.654H4.606c-.584 0-1.104.236-1.514.593-.016.014-.042.011-.055.029-.003.002-.002.007-.005.01a2.31 2.31 0 0 0-.756 1.696v6.702a2.331 2.331 0 0 0 2.33 2.329h10.79a2.33 2.33 0 0 0 2.328-2.329V6.649c0-.66-.283-1.25-.725-1.674zm-1.603.381c.098 0 .183.035.273.055l-5.668 4.735-5.619-4.745c.075-.014.145-.045.224-.045h10.79zm1.292 7.995c0 .712-.581 1.294-1.293 1.294H4.606a1.296 1.296 0 0 1-1.294-1.294V6.649c0-.235.081-.445.192-.636l6.162 5.205a.518.518 0 0 0 .667.002l6.189-5.171c.099.181.168.38.168.6v6.702z"/></symbol><symbol viewBox="0 0 25 17" id="eye" xmlns="http://www.w3.org/2000/svg"><path d="M12.337 5.71c-1.598 0-2.9 1.301-2.9 2.9s1.302 2.9 2.9 2.9c1.6 0 2.9-1.301 2.9-2.9s-1.3-2.9-2.9-2.9m0 7.355A4.46 4.46 0 0 1 7.882 8.61a4.46 4.46 0 0 1 4.455-4.455 4.46 4.46 0 0 1 4.456 4.455 4.46 4.46 0 0 1-4.456 4.455m-.065-11.509c-2.058 0-4.383.695-6.381 1.908-2.167 1.315-3.682 3.08-4.265 4.973l-.013.042.013.041c.583 1.892 2.098 3.658 4.265 4.973 1.998 1.213 4.323 1.908 6.38 1.908 2.058 0 4.384-.695 6.382-1.908 2.167-1.315 3.681-3.08 4.265-4.973l.012-.041-.012-.042c-.584-1.892-2.098-3.658-4.265-4.973-1.998-1.213-4.324-1.908-6.381-1.908m0 15.401c-4.839 0-10.903-3.326-12.22-8.279L0 8.478l.053-.2C.661 5.99 2.36 3.864 4.836 2.29 7.124.834 9.834 0 12.272 0 17.11 0 23.174 3.327 24.49 8.279l.053.2-.053.2c-.609 2.288-2.307 4.415-4.783 5.989-2.289 1.455-4.999 2.29-7.436 2.29" fill="none" fill-rule="evenodd"/></symbol><symbol viewBox="0 0 6 6" id="filters" xmlns="http://www.w3.org/2000/svg"><path d="M5.4 3.1c-.1.3-.3.6-.7.6-.3 0-.6-.3-.7-.6H.1S0 3.1 0 3s.1-.1.1-.1H4c.1-.3.4-.5.7-.5.3 0 .6.2.7.5h.4c.1 0 .2 0 .2.1s-.1.1-.1.1h-.5zm-.7-.5c-.2 0-.4.2-.4.4s.2.4.4.4c.3 0 .4-.2.4-.4s-.1-.4-.4-.4zM2 .8c-.1.3-.4.5-.7.5C1 1.3.7 1.1.6.8H.1L0 .7.1.6h.4C.7.2.9 0 1.3 0c.3 0 .6.2.7.5h3.9s.1.1.1.2-.1.1-.1.1H2zM1.3.3C1 .3.9.4.9.7c0 .2.1.3.4.3.2 0 .4-.2.4-.4S1.5.3 1.3.3zm2 5.2c-.1.3-.4.5-.7.5-.4 0-.7-.2-.7-.5H.1S0 5.4 0 5.3s.1-.1.1-.1h1.7c.1-.3.4-.5.7-.5.3 0 .6.2.7.5h2.6c.1 0 .2.1.2.1l-.1.2H3.3zM2.6 5c-.3 0-.5.1-.5.3 0 .2.2.4.4.4.3 0 .5-.1.5-.4 0-.2-.2-.3-.4-.3z"/></symbol><symbol viewBox="0 0 75 75" id="gears" xmlns="http://www.w3.org/2000/svg"><path d="M57.2 70.2h-3c-.5 0-1-.3-1.2-.8l-.6-1.7c-.4-1-1.1-1.8-2.1-2.2-1-.4-2.1-.4-3.1.1l-1.7.8c-.5.2-1 .1-1.4-.2L41.9 64c-.4-.4-.5-.9-.2-1.4l.8-1.7c.5-1 .5-2.1.1-3.1s-1.2-1.8-2.3-2.1l-1.7-.7c-.5-.2-.8-.6-.8-1.2v-3c0-.5.3-1 .8-1.2l1.7-.6c1-.4 1.8-1.1 2.3-2.1.4-1 .4-2.1-.1-3.1l-4.6-4.5c-.2-.2-.4-.5-.6-.8-.9-1.9-1-4.2-.2-6.1.8-2 2.5-3.5 4.5-4.2l1.3-.5v-2l-1.3-.5c-2-.7-3.7-2.3-4.5-4.2-.8-2-.8-4.2.2-6.1l.6-1.3-1.4-1.4-1.3.6c-1.9.9-4.2 1-6.2.2s-3.5-2.4-4.3-4.4l-.5-1.3h-2l-.5 1.3c-.7 2-2.3 3.6-4.3 4.4-2 .8-4.2.8-6.2-.2l-1.3-.6-1.4 1.4.6 1.3c.9 1.9 1 4.2.2 6.1-.8 2-2.5 3.5-4.5 4.2l-1.4.5v2l1.3.5c2 .7 3.7 2.3 4.5 4.2.8 2 .8 4.2-.2 6.1l-.6 1.3 1.4 1.4 1.3-.6c1.9-.9 4.2-1 6.2-.2s3.5 2.4 4.3 4.4l.5 1.3h2l.5-1.4c.7-2 2.3-3.6 4.2-4.4.5-.2 1-.3 1.5-.4l-4.7-4.7c-3.1.9-6.5 0-8.8-2.3-1.7-1.7-2.6-3.9-2.6-6.3s.9-4.6 2.6-6.3c1.7-1.7 3.9-2.6 6.3-2.6s4.7.9 6.3 2.6c.5.5.5 1.3 0 1.8s-1.3.5-1.8 0a6.42 6.42 0 0 0-4.6-1.9c-1.7 0-3.4.7-4.6 1.9-1.2 1.2-1.9 2.8-1.9 4.5 0 1.7.7 3.3 1.9 4.5 1.8 1.8 4.5 2.4 7 1.4.5-.2 1-.1 1.3.3l7.5 7.5c.4.4.5 1 .2 1.5s-.9.7-1.4.6c-1.1-.3-2.3-.2-3.4.2-1.3.5-2.4 1.6-2.8 3l-.8 2.2c-.2.5-.6.8-1.2.8h-3.7c-.5 0-1-.3-1.2-.8l-.8-2.2c-.5-1.3-1.5-2.4-2.9-3-1.3-.5-2.8-.5-4.1.1l-2.1 1c-.5.2-1 .1-1.4-.2L6.4 41c-.4-.4-.5-1-.2-1.5l1-2.1c.6-1.3.7-2.8.1-4.1-.5-1.3-1.6-2.4-3-2.8l-2.2-.8c-.5-.2-.8-.6-.8-1.2v-3.7c0-.5.3-1 .8-1.2l2.2-.8c1.4-.5 2.5-1.5 3-2.8.5-1.3.5-2.8-.1-4.1l-1-2.1c-.2-.5-.1-1.1.2-1.4L9 9.8c.4-.4.9-.5 1.4-.2l2.1 1c1.3.6 2.8.7 4.1.1 1.3-.5 2.4-1.6 2.9-3l.8-2.2c.2-.5.6-.8 1.2-.8h3.7c.5 0 1 .3 1.2.8l.8 2.2c.5 1.3 1.5 2.4 2.9 3 1.3.5 2.8.5 4.1-.1l2.1-1c.5-.2 1-.1 1.4.2l2.6 2.6c.4.4.5.9.2 1.4l-1 2.1c-.6 1.3-.7 2.8-.1 4.1.5 1.3 1.6 2.4 3 2.8l2.2.8c.5.2.8.6.8 1.2v3.7c0 .5-.3 1-.8 1.2l-2.2.8c-1.4.5-2.5 1.5-3 2.8-.5 1.3-.5 2.8.1 4.1 0 0 0 .1.1.1l4.5 4.5c.2.2.4.4.5.7.8 1.6.8 3.5.1 5.1-.7 1.6-2 2.9-3.7 3.5l-.9.3v1.2l.9.3c1.7.6 3.1 1.9 3.7 3.5.7 1.6.6 3.5-.1 5.1l-.4.9.9.9.9-.4c1.6-.8 3.5-.8 5.1-.1 1.7.7 3 2 3.6 3.7l.3.9h1.2l.3-.9c.6-1.7 1.9-3 3.6-3.7 1.6-.7 3.5-.6 5.1.1l.9.4.9-.9-.4-.9c-.8-1.6-.8-3.5-.1-5.1.7-1.6 2-2.9 3.7-3.5l.9-.3v-1.2l-.9-.3c-1.7-.6-3.1-1.9-3.7-3.5-.7-1.6-.6-3.5.1-5.1l.4-.9-.7-.8-.9.4c-1.6.8-3.5.8-5.1.1-1.7-.7-2.9-2-3.6-3.7l-.3-.8h-1.2l-.3.9c-.6 1.7-1.9 3-3.5 3.7-.3.1-.5.2-.8.3l3.4 3.4c2.6-.7 5.3 0 7.2 1.9 1.4 1.4 2.2 3.3 2.2 5.2s-.8 3.8-2.2 5.2c-1.4 1.4-3.3 2.2-5.3 2.2s-3.9-.8-5.3-2.2c-.5-.5-.5-1.3 0-1.8s1.3-.5 1.8 0c.9.9 2.2 1.4 3.5 1.4 1.3 0 2.6-.5 3.5-1.4.9-.9 1.4-2.2 1.4-3.5 0-1.3-.5-2.5-1.4-3.5-1.4-1.4-3.5-1.8-5.3-1.1-.5.2-1 .1-1.3-.3l-6-6c-.4-.4-.5-1-.2-1.5s.9-.7 1.4-.6c.8.2 1.7.2 2.5-.1 1-.4 1.8-1.2 2.1-2.2l.6-1.8c.2-.5.6-.8 1.2-.8h3c.5 0 1 .3 1.2.8L59 37c.4 1 1.1 1.8 2.1 2.2 1 .4 2.1.4 3.1-.1l1.7-.8c.5-.2 1-.1 1.4.2l2.1 2.1c.4.4.5.9.2 1.4l-.6 1.9c-.5 1-.5 2.1-.1 3.1s1.2 1.8 2.3 2.1l1.7.6c.5.2.8.6.8 1.2v3c0 .5-.3 1-.8 1.2l-1.8.6c-1 .4-1.8 1.1-2.3 2.1-.4 1-.4 2.1.1 3.1l.8 1.7c.2.5.1 1.1-.2 1.4l-2.1 2.1c-.4.4-.9.5-1.4.2l-1.7-.8c-1-.5-2.1-.5-3.1-.1s-1.8 1.2-2.2 2.2l-.6 1.7c-.2.6-.6.9-1.2.9z"/></symbol><symbol viewBox="0 0 48 48" id="hotspot-arrow-left" xmlns="http://www.w3.org/2000/svg"><path d="M23 24l5-9-2-1-9 10 9 10 2-1-5-9z" fill="#0f0f0f"/></symbol><symbol viewBox="0 0 48 48" id="hotspot-arrow-right" xmlns="http://www.w3.org/2000/svg"><path d="M25 24l-5-9 2-1 9 10-9 10-2-1 5-9z" fill="#0f0f0f"/></symbol><symbol viewBox="0 0 48 48" id="hotspot-close" xmlns="http://www.w3.org/2000/svg"><path d="M20.75 23.417l-5.917-7.167c-.167-.167-.25-.417-.25-.667 0-.583.417-1 1-1 .25 0 .417.083.667.25l7.167 6a.907.907 0 0 0 1.25 0l7.167-6c.167-.167.417-.25.667-.25.583 0 1 .417 1 1 0 .25-.083.417-.25.667l-6 7.167a.907.907 0 0 0 0 1.25l6 7.167c.166.166.249.416.249.666 0 .583-.417 1-1 1-.25 0-.417-.083-.667-.25l-7.167-6a.907.907 0 0 0-1.25 0l-7.167 6c-.167.167-.417.25-.667.25-.583 0-1-.417-1-1 0-.25.083-.417.25-.667l6-7.167c.251-.333.251-.916-.082-1.249z" fill="#0f0f0f"/></symbol><symbol viewBox="0 0 512 512" id="info"><path d="M256 0C114.497 0 0 114.507 0 256c0 141.503 114.507 256 256 256 141.503 0 256-114.507 256-256C512 114.497 397.492 0 256 0zm0 472c-119.393 0-216-96.615-216-216 0-119.393 96.615-216 216-216 119.393 0 216 96.615 216 216 0 119.393-96.616 216-216 216z"/><path d="M256 214.33c-11.046 0-20 8.954-20 20v128.793c0 11.046 8.954 20 20 20s20-8.955 20-20.001V234.33c0-11.046-8.954-20-20-20z"/><circle cx="256" cy="162.84" r="27"/></symbol><symbol viewBox="0 0 73 56" id="km" xmlns="http://www.w3.org/2000/svg"><path d="M37.1 34.6c0 1.2-1 2.2-2.2 2.2-1.2 0-2.2-1-2.2-2.2s1-2.2 2.2-2.2c1.2 0 2.2 1 2.2 2.2m14.4 7.9l-12-6.9c.1-.3.1-.7.1-1 0-2.7-2.2-4.8-4.8-4.8S30 31.9 30 34.6s2.2 4.8 4.8 4.8c1.2 0 2.4-.5 3.3-1.3l12 6.9c.2.2.5.2.8.2.5 0 1-.3 1.3-.7.2-.7 0-1.6-.7-2"/><path d="M72.5 51.6c-.2-.8-1.1-1.3-1.9-1.1l-2.9.8c2.8-5.9 3.9-12.4 3.3-18.9-.5-4.7-1.9-9.2-4.1-13.3-2.3-4.2-5.3-7.9-9.1-10.9C52.4 3.9 46 1.2 39.3.6 38.1.5 36.9.4 35.7.4c-9.5 0-18.5 3.7-25.2 10.4C2.9 18.4-.9 28.9.2 39.6c.5 4.8 1.9 9.3 4.3 13.6l.9 1.6c.4.7 1.3.9 1.9.5.7-.4.9-1.3.5-1.9l-.9-1.6C4.8 47.9 3.4 43.7 3 39.4c-.1-.6-.1-1.2-.1-1.9h2.7c.7-.1 1.4-.7 1.4-1.5s-.6-1.4-1.4-1.4H2.9c.2-4.8 1.5-9.5 3.7-13.7l2.3 1.3c.6.4 1.6.1 1.9-.5.2-.3.2-.7.1-1.1s-.3-.7-.7-.9L8 18.4c1.3-2 2.8-3.9 4.5-5.6 1.7-1.7 3.5-3.2 5.6-4.5l1.3 2.3c.4.6 1.3.9 1.9.5.3-.2.6-.5.7-.9.1-.4 0-.8-.1-1.1l-1.3-2.3c4.2-2.2 8.9-3.5 13.7-3.7v2.7c0 .8.6 1.4 1.4 1.4.8 0 1.4-.6 1.4-1.4V3.2c.7 0 1.3.1 1.9.1 4.1.5 8 1.7 11.7 3.6l-1.4 2.3c-.2.3-.2.7-.1 1.1.1.4.3.7.7.9.6.4 1.6.1 2-.5l1.3-2.3c1 .6 1.9 1.3 2.8 2 2.9 2.3 5.3 5 7.2 8l-2.3 1.3c-.7.4-.9 1.3-.5 2 .4.6 1.3.9 1.9.5l2.3-1.3c1.9 3.7 3.1 7.6 3.6 11.8.1.6.1 1.3.1 1.9h-2.7c-.8 0-1.4.6-1.4 1.4 0 .8.6 1.4 1.4 1.4h2.7c-.2 4.2-1.1 8.2-2.9 12l-.6-2.4c-.2-.8-1.1-1.3-1.9-1.1-.4.1-.7.4-.9.7-.2.4-.3.8-.2 1.2l1.6 6.1c.1.4.4.7.7.9.2.1.5.2.8.2.1 0 .3 0 .4-.1l6.1-1.6c.4-.1.7-.4.9-.7.3-.2.3-.6.2-1"/></symbol><symbol viewBox="0 0 117 70" id="laurel"><g fill="none" fill-rule="evenodd"><path d="M107.232 18.944a.797.797 0 0 0-.638-.928.789.789 0 0 0-.927.638c-4.084 22.194-20.793 40.2-42.57 45.875 0 0-.29.073-.657.158a3.56 3.56 0 0 0-.28-1.01 4.107 4.107 0 0 0-3.768-2.494c-1.631 0-3.105.969-3.757 2.469a3.65 3.65 0 0 0-.289 1.013c-.335-.07-.623-.136-.82-.184C31.83 58.76 15.191 40.792 11.116 18.654a.797.797 0 0 0-1.566.29C13.75 41.743 30.917 60.24 53.286 66.07l1.14.25c.456 1.776 2.053 3.097 3.967 3.097 1.927 0 3.536-1.339 3.98-3.134.301-.054.626-.116.926-.187a.778.778 0 0 0 .2-.026c22.373-5.83 39.538-24.329 43.734-47.127" fill="#FAFAFA"/><path d="M106.454 34.007c-2.393 1.372-4.658 3.452-6.737 6.189 1.974 1.075 4.295 1.066 6.622-.036h.002c2.707-1.278 5.185-4.03 6.74-7.45-1.955-.517-4.223-.076-6.627 1.297M83.743 49.52c.398-2.834-.643-4.91-1.79-6.28-1.66 2.017-2.757 4.247-3.264 6.641-.52 2.484-.28 4.85.673 6.76 2.402-1.905 4.02-4.515 4.381-7.121M73.615 56.328c1.038-2.716.46-5.01-.377-6.625-2.108 1.624-3.709 3.585-4.768 5.84-1.115 2.387-1.418 4.738-.89 6.853 2.862-1.338 5.086-3.56 6.035-6.068M80.933 59.242c1.366 1.888 3.526 2.93 6.174 2.95h.002c3.013.06 6.492-1.379 9.374-3.807-1.59-1.37-3.881-2.003-6.69-1.823-2.778.18-5.755 1.08-8.86 2.68M78.03 64.631c-2.803-.445-5.988-.222-9.486.664.926 2.179 2.855 3.699 5.512 4.32h.002c3.044.715 6.809.095 10.216-1.667-1.273-1.72-3.412-2.86-6.243-3.317" fill="#FAFAFA"/><path d="M6.522 8.98C8.88 7.094 10.68 3.802 11.432.06 9.416-.014 7.38.978 5.359 2.89 3.35 4.798 1.604 7.37.163 10.54c2.124.592 4.353.052 6.36-1.56" fill="#FAFAFA" mask="url(#mask-2)" transform="translate(105.352 17.537)"/><path d="M102.733 27.024c.72-2.97.428-6.018-.822-8.299-1.343-2.47-3.314-3.441-4.964-3.792-.087 2.692.378 5.153 1.383 7.322 1.051 2.255 2.562 3.887 4.403 4.77M97.22 38.538c1.333-2.716 1.692-5.729.951-8.208-.8-2.696-2.545-4.094-4.106-4.818-.656 2.545-.72 5.015-.188 7.356.551 2.404 1.725 4.385 3.342 5.67M99.375 46.203c-2.647.79-5.32 2.311-7.952 4.527 1.716 1.513 4.007 2.039 6.553 1.483h.001c2.935-.637 5.96-2.76 8.222-5.74-1.818-.964-4.157-1.06-6.824-.27M92.021 40.725c-.214-2.822-1.648-4.594-3.04-5.663-1.178 2.324-1.762 4.72-1.737 7.136.03 2.499.767 4.72 2.092 6.351 1.894-2.364 2.888-5.234 2.685-7.824" fill="#FAFAFA"/><path d="M4.06 8.764c.041-3.138-.884-6.281-2.517-8.671C.603 2.78.1 5.655.048 8.662c-.049 3.04.385 5.883 1.293 8.467 1.71-2.202 2.69-5.179 2.72-8.365" fill="#FAFAFA" mask="url(#mask-4)" transform="translate(105.352 .166)"/><path d="M18.454 22.255c1.005-2.169 1.47-4.628 1.384-7.322-1.651.35-3.622 1.322-4.964 3.79-1.252 2.283-1.544 5.332-.822 8.301 1.838-.882 3.35-2.514 4.402-4.77M4.91 26.516v.001c2.006 1.61 4.233 2.154 6.36 1.56-1.442-3.17-3.188-5.741-5.197-7.652C4.052 18.515 1.938 17.52 0 17.597c.752 3.742 2.553 7.035 4.91 8.92M19.564 38.538c1.617-1.284 2.791-3.265 3.344-5.67.531-2.338.468-4.808-.188-7.356-1.56.724-3.308 2.122-4.106 4.816-.743 2.481-.384 5.494.95 8.21M25.36 50.73c-2.632-2.216-5.305-3.737-7.953-4.528-2.663-.789-5.002-.693-6.823.27 2.262 2.98 5.287 5.104 8.222 5.74l.002.001c2.54.556 4.836.03 6.553-1.483M17.067 40.196c-2.08-2.737-4.344-4.817-6.739-6.19-2.403-1.37-4.67-1.809-6.625-1.296 1.556 3.42 4.033 6.172 6.742 7.45h.001c2.33 1.104 4.649 1.111 6.621.036M35.852 59.242c-3.106-1.6-6.084-2.5-8.862-2.68-2.805-.18-5.098.452-6.688 1.823 2.88 2.428 6.34 3.897 9.373 3.808h.002c2.648-.022 4.81-1.063 6.175-2.951M38.751 64.631c-2.83.458-4.968 1.598-6.242 3.317 3.406 1.762 7.171 2.385 10.217 1.666h.001c2.658-.62 4.587-2.14 5.514-4.32-3.5-.885-6.69-1.107-9.49-.663M49.204 62.396c.528-2.115.225-4.466-.89-6.854-1.06-2.254-2.66-4.215-4.768-5.839-.837 1.616-1.415 3.909-.38 6.622.951 2.51 3.175 4.733 6.038 6.07M29.54 42.198c.025-2.415-.56-4.812-1.738-7.136-1.39 1.068-2.824 2.84-3.038 5.66-.205 2.593.79 5.463 2.685 7.827 1.324-1.632 2.06-3.852 2.09-6.351" fill="#FAFAFA"/><path d="M4.138 8.662c-.053-3.007-.556-5.883-1.497-8.57C1.01 2.483.084 5.625.123 8.763c.03 3.187 1.01 6.165 2.72 8.367.907-2.584 1.343-5.426 1.295-8.467" fill="#FAFAFA" mask="url(#mask-6)" transform="translate(7.248 .166)"/><path d="M37.422 56.64c.952-1.91 1.193-4.275.674-6.76-.508-2.393-1.606-4.623-3.265-6.64-1.147 1.37-2.188 3.445-1.789 6.278.36 2.607 1.977 5.218 4.38 7.122" fill="#FAFAFA"/></g></symbol><symbol viewBox="0 0 136 26" id="logo-ducati" xmlns="http://www.w3.org/2000/svg"><path d="M11.7 19.458h1c2.7-.1 3.7-.9 4.4-3.5.4-1.6.8-3.2 1.1-4.8.1-.7.1-1.5.1-2.3-.1-.9-.6-1.6-1.4-1.9-.8-.3-1.6-.4-2.5-.3-1 4.2-1.8 8.4-2.7 12.8M6.3.958h10.9c1.9 0 3.7.3 5.4.9 2.9 1 4.5 3.2 4.7 6.2.4 4.6-1 8.8-4 12.4-1.9 2.2-4.3 3.4-7.1 4-1.4.3-2.9.4-4.3.5-3.3.1-6.6 0-9.9 0h-.7c1.7-8.1 3.4-16 5-24M41.278.958c-.2.8-.3 1.5-.4 2.2-.9 4.3-1.8 8.7-2.7 13-.1.5-.1 1-.1 1.5.1 1.3 1.3 1.8 2.4 1.1.5-.3.8-.8 1-1.4.3-1 .6-2 .8-3.1l2.7-12.9c0-.1.1-.3.1-.5h9.1v.3c-1.1 5.1-2.1 10.1-3.2 15.2 0 .2-.1.4-.2.6-1.3 4.6-4.3 7.3-9 8.2-2.7.5-5.5.4-8.3-.2h-.2c-3-.8-4.6-2.8-4.8-5.9-.1-1.6.1-3.2.5-4.8.9-4.2 1.7-8.3 2.6-12.5.1-.3.1-.5.2-.8h9.5zM91.2 6.6c-.1 0-.1 0-.2-.1-1.3 2.9-2.6 5.7-3.9 8.7h4.1V6.6zm-7.9 18.3h-9.1c.1-.3.2-.6.4-.8 3.9-7.5 7.9-14.9 11.8-22.4.3-.6.6-.8 1.3-.8H98.9c.8 8 1.5 16 2.3 24h-9.4c-.1-1.2-.3-2.3-.4-3.6h-6.6c-.6 1.1-1 2.3-1.5 3.6zM67.5 16.2h8.8c-.1.3-.1.5-.2.7-.5 1-.9 2-1.4 3-1.9 3.3-4.9 5-8.6 5.5-1.9.3-3.8.3-5.6-.1-3.6-.8-5.9-2.9-6.5-6.5-1-6.2.9-11.5 5.8-15.6C62 1.3 64.7.5 67.7.4c1.7-.1 3.4.1 5 .5 3.2.9 4.9 3 5 6.3v2.4c0 .1 0 .3-.1.4h-8.3c-.1-.7 0-1.3-.2-1.9-.3-1.2-1.3-1.6-2.4-1.1-.8.4-1.5 1.1-1.9 2-1.1 2.4-1.8 5-1.8 7.6 0 .5.1 1 .2 1.4.2.7.6 1.3 1.4 1.4.8.1 1.6-.1 2-.9.3-.4.4-.9.6-1.4.1-.2.2-.5.3-.9M124.1.9c-.5 2.1-.9 4.1-1.4 6.3h-6c-1.2 5.9-2.4 11.7-3.6 17.6h-9c1.2-5.8 2.3-11.7 3.5-17.6h-5.9c.5-2.2.9-4.2 1.4-6.3h21zM125.962.958h8.7c.1.6-4.3 22-4.9 23.9h-8.8c1.7-8 3.3-15.9 5-23.9"/></symbol><symbol viewBox="0 0 55 60" id="logo-ducati-full" xmlns="http://www.w3.org/2000/svg"><path d="M43.5 24.5c-3.1.3-6 .6-8.9 1-5.5.8-11.2 2.2-15.8 4.1-3.9 1.7-9.5 5.1-9.5 10.2 0 .8.1.8.7 1.7.9 1.3 2.1 3.1 3 4.3 2.9 3.7 8.1 10.1 12.2 12.4 1.2.7 2.2 1.2 3.7.5 1.1-.5 2.2-1.3 3-1.9 5.3-4.3 12.2-13.1 15.4-19 2.2-4.1 4.2-9.1 5.6-13.9-.9-.1-8.5.5-9.4.6zM35.4 14v-2.9c-.2.2-1.2 2.5-1.3 2.9h1.3zM8.4 11.1l-1 4.4c1.4.1 1.8-.8 2-1.9.3-1.2.7-2.6-1-2.5z"/><path d="M54.8 9.8c-.8-3.2-4.8-4.9-7.6-6-6.7-2.6-16.3-4-23.6-3.4-7.2.6-16.5 2.6-21 6C1.3 7.4.4 8.3.1 10.6c-.6 4.9 1.7 12.2 3.1 16.6.4-.2.9-.8 2.1-1.4 2.4-1.2 5.3-2 8-2.5 9.7-2 23.2-2.2 33.3-2.2 1.2 0 2.4 0 3.5.1 1.1 0 2.4.1 3.5.1l.6-2.7c.5-2.5 1.2-6.3.6-8.8zm-42.1 4c-1.3 4.1-5.1 3.5-8.9 3.5l1.8-8c.8-.1 2.2 0 3.1 0 1.1 0 1.9 0 2.8.3 1.5.6 1.8 2.4 1.2 4.2zm4.5 3.7c-2.2.1-4.2-.4-3.8-2.8.1-.6 1.1-5.2 1.2-5.4h3.2c-.1.9-.5 2.3-.7 3.2-.1.6-.2 1-.3 1.6-.1.5-.3 1.4.5 1.2.5-.1.6-.7.7-1.2.3-1.4.8-3.6 1-4.8h3.2c-.1.8-.4 2-.6 2.8-.5 2.6-.5 5.2-4.4 5.4zm8.1 0c-2.7 0-3.7-1.7-3.1-4.3.9-4.3 5.4-4.7 7.2-3.7 1 .6 1.2 1.3 1 2.7h-3c0-.4.1-.8-.2-1-.3-.2-.8 0-1 .2-.5.5-1.3 3.5-.7 3.9.7.5 1.2-.5 1.3-1h3c-.2 2-2 3.3-4.5 3.2zm10.2-.2v-1.2h-2.3l-.6 1.3h-3.1c.1-.3 1.8-3.5 2.1-4l2.2-4H38l.9 8c-.7-.1-3 0-3.4-.1zm9.2-5.9c-.2.4-.6 2.4-.7 2.9-.2.8-.4 2.1-.7 2.9h-3.2c-.1-.5 1.2-5.2 1.2-5.9h-2l.5-2.2h7.3c0 .3-.4 2-.5 2.2l-1.9.1zm4.5 5.9h-3.3l1.7-8h3.2l-1.6 8z"/></symbol><symbol viewBox="0 0 514.9 20.3" id="logo-monster-1200" xmlns="http://www.w3.org/2000/svg"><path d="M470.5 2.7c.4-1.6 2.9-2.6 6.2-2.6h33c3.6 0 5.6.9 5.1 2.7-.2.8-3.1 12.8-3.5 14.7-.4 1.9-3.4 2.6-6 2.6h-33.6c-2.6 0-5.2-.9-4.8-2.4.4-1.5 3.6-15 3.6-15m6.6 11.7c-.3 1 1.3 1.3 2.1 1.3h20.5c2 0 2.9-.8 3-1.3.2-.5 1.9-7.9 2.1-8.8.2-.9-1.2-1.3-2.1-1.3H482c-1.3 0-2.6.5-2.8 1.3 0 .1-1.9 7.8-2.1 8.8M422.4 2.7c.4-1.6 2.9-2.6 6.2-2.6h33c3.6 0 5.6.9 5.1 2.7-.2.8-3 12.8-3.5 14.7-.4 1.9-3.4 2.6-6 2.6h-33.6c-2.6 0-5.2-.9-4.8-2.4.4-1.5 3.6-15 3.6-15m6.6 11.7c-.3 1 1.3 1.3 2.1 1.3h20.5c2 0 2.9-.8 3-1.3.1-.5 1.9-7.9 2.1-8.8.2-.9-1.2-1.3-2.1-1.3h-20.7c-1.3 0-2.6.5-2.8 1.3 0 .1-1.9 7.8-2.1 8.8M372.2.1s-4.3 18.3-4.7 19.8h-8.9L363.3.1h8.9zM374.2 4.3l1-4.2h39c1.5 0 2.7.3 3.7.8s1.3 1 1.2 1.7l-1.7 7.2c-.2.7-.8 1.2-2 1.7s-2.5.7-4 .7l-27-.2c-.7 0-1.4.1-2 .4-.6.2-.9.5-1 .8l-.6 2.4 34.9.1-1 4.2h-44.3l2.3-9.7c.2-.7.8-1.2 2-1.7s2.5-.7 4-.7h27.1c2.8 0 2.8-1.2 3-2 .2-.8-.4-1.5-2.3-1.5h-32.3M141.9 20.3l-10.9-.1-21.2-14.5-3.4 14.5h-9.5L101.6 0h10.9l21.2 14.8L137.1.1h9.6zM194.2 4.2h-32.4c-.8 0-1.4.1-2 .4-.6.2-.9.5-1 .9l-.3 1.2c-.1.3.1.6.6.9.5.2 1.1.4 1.9.4h27c1.5 0 2.7.2 3.6.7.9.5 1.3 1 1.2 1.7l-1.7 7.3c-.2.7-.8 1.2-2 1.7s-2.5.7-4 .7H146l1-4.2h32.4c.8 0 1.4-.1 2-.4.6-.2.9-.5 1-.8l.3-1.2c.1-.3-.1-.6-.6-.8-.5-.2-1.1-.4-1.9-.4h-27c-1.5 0-2.7-.2-3.6-.7-.9-.5-1.3-1-1.2-1.7l1.7-7.3c.2-.7.8-1.2 2-1.7s2.5-.7 4-.7h39.2l-1.1 4zM282.6 7.8l-1.1 4.2h-28.2l-.6 2.4c-.1.3.1.6.6.8.5.2 1.1.4 1.8.4h32.3l-1 4.2h-39.1c-1.5 0-2.7-.2-3.7-.7-1-.5-1.4-1-1.2-1.7L246 2.3c.2-.7.8-1.2 2-1.7s2.5-.7 4-.7h39.1l-1 4.2h-32.3c-.8 0-1.4.1-2 .4-.6.2-.9.5-1 .8l-.6 2.4h28.4zM44.4 20H35l2.5-10.9L23.7 20h-3L12 9.1 9.4 20H0L4.7 0h9.4L24 12.3 39.7 0h9.4zM93.9 17.5c-.2.7-.8 1.2-2 1.7s-2.5.7-4 .7H54.3c-1.5 0-2.7-.2-3.6-.7-1-.5-1.3-1-1.2-1.7L53 2.4c.2-.7.8-1.2 2-1.7s2.5-.7 4-.7h33.6c1.5 0 2.8.2 3.7.7.9.5 1.3 1 1.2 1.7l-3.6 15.1zm-8.8-3l2.1-9.1c.1-.3-.1-.6-.6-.8-.5-.2-1.1-.4-1.8-.4H64.7c-.8 0-1.4.1-2 .4-.6.2-.9.5-1 .8l-2.1 9.1c-.1.3.1.6.6.8.5.2 1.1.4 1.8.4h20.1c.8 0 1.4-.1 2-.4.6-.2.9-.5 1-.8zM221.5 19.9h-9.4l3.4-14.5c.1-.3-.1-.6-.6-.8-.5-.2-1.1-.4-1.8-.4h-14.8l1-4.2h44.3l-1 4.2h-14.8c-.8 0-1.4.1-2 .4-.6.2-.9.5-1 .8l-3.3 14.5zM334.8 19.9h-9.4l1.1-4.8c0-.3-.2-.6-.6-.8-.5-.2-1.1-.4-1.8-.4h-20c-.8 0-1.4.1-2 .4-.6.2-.9.5-1 .9l-1.2 4.8h-9.4l4.1-17.5c.2-.7.8-1.2 2-1.7 1.1-.5 2.5-.7 3.9-.7h33.6c1.5 0 2.7.2 3.7.7.9.5 1.3 1 1.2 1.7l-1.6 6.9c-.2.7-.8 1.2-2 1.7s-2.5.7-4 .7c1.7 0 3 .3 3.9.8.3.2.5.4.6.7.2.5.3.8.3.8l-1.4 5.8zm-6.7-11.5l.7-3c.1-.3-.1-.6-.6-.8-.5-.2-1.1-.4-1.8-.4h-20.1c-.8 0-1.4.1-2 .4-.6.2-.9.5-1 .8l-.7 3c-.1.3.1.6.6.8.5.2 1.1.4 1.8.4h20.1c.7 0 1.4-.1 1.9-.4.6-.2 1-.4 1.1-.8z"/></symbol><symbol viewBox="0 0 80 29" id="logo-scrambler" xmlns="http://www.w3.org/2000/svg"><path d="M42.6 24.3c-.1.7-.2 1.2-.4 1.5-.2.3-.5.5-.9.6H41l.4-4h.3c.5-.1.7.1.8.4.2.3.2.8.1 1.5m-.5-3.5l-3.3.4-.7 7.3 3.5-.4c2.2-.2 3.7-1.8 3.9-3.9.2-2.3-.5-3.7-3.4-3.4M50.5 19.9l-.5 4.7c-.1.6-.3.8-.6.9-.3 0-.5-.2-.5-.7l.5-4.7-2.8.3-.5 4.8c-.2 1.7 1 2.5 3.1 2.2 2.1-.2 3.5-1.2 3.6-3l.5-4.8-2.8.3zM57.9 23.6c-.1.8-.4 1-.7 1.1-.7.1-.7-.7-.6-1.9.1-1.2.3-1.9 1-2 .3 0 .6.1.6.9l2.6-.3c.2-2.1-1.2-2.7-3-2.5-2.4.3-3.9 1.9-4 4.2-.2 2.3.8 3.7 3.3 3.4 1.8-.2 3.4-1.2 3.6-3.2l-2.8.3zM65 22.5l-1.2.1.9-2.8.3 2.7zm-1.9-4l-3 7.5 2.7-.3.4-1.2 2-.2.2 1.1 2.9-.3-1.6-7-3.6.4zM74.4 17.2l-6.3.7-.2 2 1.8-.2-.6 5.3 2.8-.3.6-5.4 1.7-.1zM74.9 17.1l-.7 7.3 2.8-.3.7-7.3zM3.8 11.34l2.9 9.9v.6c-.1.8-.8 1.6-1.7 1.7l-5 .6.3-2.8 3.2-.4c.2 0 .4-.2.4-.4v-.1L1 10.84c0-.2-.1-.5-.1-.7.1-.9.9-1.7 1.8-1.8l4.9-.5-.4 2.8-3 .3c-.2 0-.3.2-.4.4zm8.2-.9l-.9 9.3c0 .2.1.3.3.3l2.7-.3-.3 2.8-4.3.5c-.9.1-1.5-.5-1.5-1.3v-.1l1.2-12.4c.1-.9.9-1.7 1.7-1.8l4.3-.5-.2 2.7-2.7.3c-.2.1-.3.3-.3.5zm9.4 3.5l.4-4.6c0-.2-.1-.4-.3-.4l-1.8.2-.5 5.5 1.8-.2c.2 0 .4-.2.4-.5zm1.1 3.1l1 4.4-2.9.3-1-4.4-.6.1-.4 4.6-2.9.3 1.5-15.6 2-.2.8-.2 3.4-.4c.9 0 1.6.6 1.5 1.5l-.7 7.8c-.2.9-.9 1.6-1.7 1.8zm5.9-.5l1.5-.2-.2-5.6-1.3 5.8zm1.6 2.4l-2.2.2-.4 1.9-3.2.3 4.4-16 .9-.1 1.5-.1.9-.1 1.3 15.4-3.1.3-.1-1.8zm8.6-14.7l1 6.6 2.5-7h.3l2.9-.3-1.5 15.7-2.9.3.7-7.1-1.4 3.3-1.3 2.9-1.3-5.6-.7 6.9-2.9.3 1.5-15.7h.2l2.7-.3h.2zm14.2 6.2c.7-.1 1.1.4 1.1 1l-.5 5.1c-.1.9-.9 1.7-1.7 1.8l-3.4.4-2.9.3 1.4-15.6 2-.2.9-.1 3.4-.4c.9-.1 1.5.5 1.4 1.4l-.5 4.9c0 .7-.6 1.3-1.2 1.4zm-3.7-.5l2.1-.2.3-3.6c0-.2-.1-.4-.3-.4l-1.8.2-.3 4zm1.9 2.2l-2.1.2-.3 3.6 1.8-.2c.2 0 .4-.2.4-.4l.2-3.2zm10 5.2l-3.2.4-2.9.3 1.5-15.7 2.9-.3-1.3 12.8 3.2-.4-.2 2.9zm7.3-7.1l-2.8.3-.3 3.6 3.4-.4-.2 2.7-3.5.4-2.9.3 1.5-15.6 2-.2.9-.1 3.6-.4-.3 2.8-3.6.4-.4 4 2.8-.3-.2 2.5zm7.4-2.3l.4-4.6c0-.2-.1-.4-.3-.4l-1.8.2-.5 5.5 1.8-.2c.2 0 .3-.2.4-.5-.1.1-.1 0 0 0zm3.4-6.4l-.7 7.8c-.1.8-.8 1.5-1.6 1.7l1 4.4-2.9.3-1-4.4-.7.1-.4 4.6-2.9.3L71.4.74l2-.2.9-.1 3.4-.4c.9-.1 1.5.5 1.4 1.5z"/></symbol><symbol viewBox="0 0 30 30" id="magnifier" xmlns="http://www.w3.org/2000/svg"><path d="M22 20.9l-4.4-4.4c.7-.9 1.1-2 1.1-3.2 0-1.4-.6-2.8-1.6-3.8s-2.3-1.6-3.8-1.6c-1.4 0-2.8.6-3.8 1.6-2.1 2.1-2.1 5.5 0 7.5 1 1 2.3 1.6 3.8 1.6 1.2 0 2.3-.4 3.2-1.1l4.4 4.4 1.1-1zm-8.7-3.6c-1.1 0-2-.4-2.8-1.2-.7-.7-1.2-1.7-1.2-2.8s.4-2 1.2-2.8c.7-.7 1.7-1.2 2.8-1.2 1.1 0 2 .4 2.8 1.2 1.5 1.5 1.5 4 0 5.6-.7.8-1.7 1.2-2.8 1.2z"/></symbol><symbol viewBox="0 0 48 48" id="menu" xmlns="http://www.w3.org/2000/svg"><g fill="#0f0f0f"><path d="M33.5 17h-19c-.825 0-1.5-.675-1.5-1.5s.675-1.5 1.5-1.5h19c.825 0 1.5.675 1.5 1.5s-.675 1.5-1.5 1.5zM33.5 25.5h-19c-.825 0-1.5-.675-1.5-1.5s.675-1.5 1.5-1.5h19c.825 0 1.5.675 1.5 1.5s-.675 1.5-1.5 1.5zM33.5 34h-19c-.825 0-1.5-.675-1.5-1.5s.675-1.5 1.5-1.5h19c.825 0 1.5.675 1.5 1.5s-.675 1.5-1.5 1.5z"/></g></symbol><symbol viewBox="0 0 22 22" id="minus" xmlns="http://www.w3.org/2000/svg"><path d="M0 10h22v2H0z"/></symbol><symbol viewBox="0 0 20 22" id="modal-close" xmlns="http://www.w3.org/2000/svg"><path d="M18 21.2c-.3 0-.7-.1-.9-.4L10 12.9l-7.1 7.9c-.5.5-1.2.6-1.8.1-.5-.5-.6-1.2-.1-1.8L8.3 11 1.1 2.8c-.5-.5-.4-1.3.1-1.7.5-.5 1.3-.4 1.8.1l7 7.9 7.1-7.9c.5-.5 1.3-.6 1.8-.1s.6 1.2.1 1.8L11.7 11l7.3 8.2c.5.5.4 1.3-.1 1.8-.3.1-.6.2-.9.2z"/></symbol><symbol viewBox="0 0 21 30" id="pin" xmlns="http://www.w3.org/2000/svg"><path d="M10.4 12.6c-1.1 0-2-.9-2-2s.9-2 2-2 2 .9 2 2-.9 2-2 2m0-5.7c-2 0-3.7 1.7-3.7 3.7s1.6 3.7 3.7 3.7 3.7-1.7 3.7-3.7-1.7-3.7-3.7-3.7"/><path d="M10.4 27.8c-2.9-4.2-8.7-13.4-8.7-17.2 0-4.9 3.9-8.8 8.7-8.8s8.7 3.9 8.7 8.8c0 3.8-5.7 12.9-8.7 17.2m0-27.7C4.7.1.1 4.8.1 10.6.1 16 9.4 29 9.8 29.7c.2.2.4.3.7.3.2 0 .5-.1.7-.3.4-.6 9.7-13.6 9.7-19.1C20.7 4.8 16.1.1 10.4.1"/></symbol><symbol viewBox="0 0 100 100" id="play" xmlns="http://www.w3.org/2000/svg"><circle fill="#FFF" class="ckst0" cx="50" cy="50" r="50"/><path d="M59.8 50l-18 9.8V40.2z"/></symbol><symbol viewBox="0 0 22 22" id="plus" xmlns="http://www.w3.org/2000/svg"><path d="M0 10h22v2H0z"/><path d="M10 0h2v22h-2z"/></symbol><symbol viewBox="0 0 22.9 17.3" id="printer" xmlns="http://www.w3.org/2000/svg"><path d="M4 6.2v1.7h1.2v8.5c0 .5.4.9.9.9h10.8c.5 0 .9-.4.9-.9V7.9H19V6.2H4zm12 9.3H6.9V7.9H16v7.6z"/><path d="M22 14.2h-2.2v-1.7h1.3V3.8h-5.3c-.5 0-.8-.4-.8-.9V1.7H8v1.2c0 .5-.4.9-.9.9H1.8v8.7h1.3v1.7H.9c-.5 0-.9-.4-.9-.9V2.9c0-.5.4-.9.9-.9h5.3V.9c0-.5.4-.9.9-.9h8.8c.5 0 .9.4.9.9v1.2H22c.5 0 .9.4.9.9v10.5c0 .3-.4.7-.9.7"/></symbol><symbol viewBox="0 0 62 99" id="rosette" xmlns="http://www.w3.org/2000/svg"><path d="M29.7 67.2c-1.7 0-3.2-.9-4.7-1.8l-.9-.6-.9-.6c-.9-.6-1.8-1.1-2.7-1.4-2.3-.8-5.2-.4-7.7-.8L2.4 89s8.5-2.5 13.9-7.1c.7 6.9 5.5 14.6 5.5 14.6l6.8-17.8.3-.9.3-.9 4.2-10.8c-1.1.5-2.4 1.1-3.7 1.1zM40.5 62.7c-.8.3-1.6.7-2.4 1.2l-.1.2-6 15.5 6.4 16.7s4.8-7.7 5.5-14.6c5.3 4.6 13.9 7.1 13.9 7.1L47.5 62c-2.2.3-4.9 0-7 .7zM60 23.8c-.9-2.9-4.8-4.4-6.6-6.9-1.8-2.5-2-6.6-4.5-8.4-2.4-1.8-6.4-.7-9.4-1.7-2.8-.8-5.4-4.1-8.5-4.1-3.1 0-5.7 3.2-8.6 4.2-2.9.9-6.9-.1-9.4 1.7s-2.7 5.9-4.5 8.4c-1.8 2.4-5.6 3.9-6.6 6.9-.9 2.8 1.3 6.3 1.3 9.4 0 3.1-2.2 6.6-1.3 9.4 1 2.9 4.8 4.4 6.6 6.8 1.8 2.4 2 6.5 4.4 8.3 0 0 .1 0 .1.1.3.2.5.3.8.5.3.2.7.3 1 .3 2.3.6 5.2.1 7.5.9 1 .3 1.9.9 2.8 1.5.2.1.4.3.6.4.2.1.4.3.6.4 1.4 1 2.9 1.8 4.5 1.8 1.5 0 2.9-.7 4.2-1.6.4-.2.7-.5 1.1-.7.4-.2.7-.5 1.1-.7.7-.5 1.5-.9 2.2-1.1 2.1-.7 4.7-.3 6.9-.7.2 0 .4-.1.6-.1.2-.1.4-.1.6-.2.4-.1.9-.3 1.2-.6 2.5-1.8 2.7-5.9 4.5-8.4 1.8-2.4 5.7-3.9 6.6-6.8.9-2.8-1.3-6.3-1.3-9.4s2.4-6.8 1.5-9.6zM31 53.4c-11.1 0-20.1-9-20.1-20.2S19.9 13 31 13c11.1 0 20.2 9 20.2 20.2S42.1 53.4 31 53.4z"/><path d="M31 15.4c-9.8 0-17.8 8-17.8 17.8S21.2 51 31 51s17.8-8 17.8-17.8-8-17.8-17.8-17.8zm0 32.8c-8.3 0-14.9-6.7-14.9-14.9 0-8.3 6.7-14.9 14.9-14.9 8.3 0 15 6.7 15 14.9-.1 8.2-6.7 14.9-15 14.9z"/></symbol><symbol viewBox="0 0 16 16" id="search"><path d="M7.22 12.921a5.68 5.68 0 0 1-5.673-5.677c0-3.133 2.543-5.696 5.673-5.696s5.69 2.545 5.69 5.678c0 3.132-2.543 5.695-5.69 5.695m8.553 1.726l-2.898-2.9a7.2 7.2 0 0 0 1.582-4.521C14.457 3.239 11.221 0 7.22 0A7.217 7.217 0 0 0 0 7.226c0 3.986 3.236 7.226 7.22 7.226a7.187 7.187 0 0 0 4.517-1.584l2.898 2.9c.16.16.356.232.57.232a.778.778 0 0 0 .568-.231.806.806 0 0 0 0-1.122" fill="#0F0F0F" fill-rule="evenodd"/></symbol><symbol viewBox="0 0 19.1 21.3" id="share" xmlns="http://www.w3.org/2000/svg"><g transform="translate(1165)"><path d="M-1160.8 14.8c-2.3 0-4.2-1.9-4.2-4.2 0-2.3 1.9-4.2 4.2-4.2s4.2 1.9 4.2 4.2c-.1 2.3-1.9 4.2-4.2 4.2zm0-6.7c-1.4 0-2.5 1.1-2.5 2.5s1.1 2.5 2.5 2.5 2.5-1.1 2.5-2.5c-.1-1.4-1.2-2.5-2.5-2.5zM-1150 21.3c-.7 0-1.4-.2-2.1-.6-2-1.1-2.7-3.7-1.5-5.7 1.1-2 3.7-2.7 5.7-1.5 2 1.1 2.7 3.7 1.5 5.7-.8 1.3-2.2 2.1-3.6 2.1zm0-6.7c-.9 0-1.7.4-2.1 1.2-.3.6-.4 1.2-.2 1.9.2.6.6 1.2 1.1 1.5 1.2.7 2.7.3 3.4-.9.7-1.2.3-2.7-.9-3.4-.5-.2-.9-.3-1.3-.3z"/><path d="M-1153.1 16.2c-.1 0-.3 0-.4-.1l-4.9-2.9c-.4-.2-.5-.8-.3-1.2.2-.4.8-.5 1.2-.3l4.9 2.9c.4.2.5.8.3 1.2-.3.2-.6.4-.8.4zM-1150 8.3c-1.4 0-2.8-.7-3.6-2.1-1.1-2-.5-4.5 1.5-5.7 2-1.1 4.5-.5 5.7 1.5 1.1 2 .5 4.5-1.5 5.7-.7.4-1.4.6-2.1.6zm0-6.6c-.4 0-.8.1-1.2.3-.6.3-1 .9-1.1 1.5-.2.6-.1 1.3.2 1.9.7 1.2 2.2 1.6 3.4.9 1.2-.7 1.6-2.2.9-3.4-.5-.8-1.4-1.2-2.2-1.2z"/><path d="M-1158.1 9.6c-.3 0-.6-.2-.7-.4-.2-.4-.1-.9.3-1.2l4.9-2.8c.4-.2.9-.1 1.2.3s.1.9-.3 1.2l-4.9 2.8c-.2.1-.3.1-.5.1z"/></g></symbol><symbol viewBox="0 0 9 20" id="social-fb" xmlns="http://www.w3.org/2000/svg"><path d="M1.9 20h3.9V10h2.8L9 6.5H5.9V4.4c0-.8.5-1 .9-1H9V0H6.1C2.7 0 1.9 2.6 1.9 4.2v2.3H0V10h1.9v10z"/></symbol><symbol viewBox="0 0 26 20" id="social-gplus" xmlns="http://www.w3.org/2000/svg"><path d="M.5 9.6c-.3 3.3 1.9 6.5 5 7.7 3.1 1.2 7.1.4 9-2.4 1.3-1.7 1.6-3.9 1.4-6H8.3v2.7h4.5c-.7 3.3-5.2 4.4-7.6 2.2-2.3-1.9-2.2-6 .4-7.8 1.8-1.4 4.4-1.1 6.2.2.7-.6 1.4-1.3 2-2.1-1.5-1.2-3.3-2-5.3-1.9C4.4 2.1.6 5.6.5 9.6zM21 6.6h2.3v2.2h2.3V11h-2.3v2.2H21V11h-2.3V8.9H21c-.1-.8 0-1.5 0-2.3"/></symbol><symbol viewBox="0 0 22 22" id="social-instagram" xmlns="http://www.w3.org/2000/svg"><path d="M19.8 17.6c0 1.2-.9 2.1-2.1 2.1H4.3c-1.2 0-2.1-.9-2.1-2.1v-9h3.3c-.3.8-.4 1.6-.4 2.4 0 3.3 2.7 6 6 6s6-2.7 6-6c0-.8-.2-1.6-.4-2.3H20l-.2 8.9zM7.9 8.7c.7-1 1.8-1.6 3.1-1.6s2.4.6 3.1 1.6c.5.6.7 1.4.7 2.3 0 2.1-1.7 3.9-3.9 3.9S7 13.1 7 11c.1-.8.4-1.6.9-2.3zm11-6.2h.5v3.7h-3.7V2.5h3.2zM17.6 0H4.2C1.9 0 0 1.9 0 4.3v13.5C0 20 1.9 22 4.3 22h13.4c2.3 0 4.3-1.9 4.3-4.3V4.3C21.9 1.9 20 0 17.6 0z"/></symbol><symbol viewBox="0 0 15 15" id="social-linkedin" xmlns="http://www.w3.org/2000/svg"><path d="M15 15h-3.1v-4.9c0-1.2 0-2.7-1.6-2.7S8.4 8.7 8.4 10v5H5.3V5h3v1.4c.4-.8 1.4-1.6 2.9-1.6 3.1 0 3.7 2.1 3.7 4.8V15zM1.8 3.6C.8 3.6 0 2.8 0 1.8S.8 0 1.8 0s1.8.8 1.8 1.8-.8 1.8-1.8 1.8zM.2 15h3.1V5H.2v10z"/></symbol><symbol viewBox="0 0 16 16" id="social-skype" xmlns="http://www.w3.org/2000/svg"><path d="M15.5 9.7c.1-.5.2-1.1.2-1.6v-.6c-.3-3.9-3.6-7-7.6-7-.4 0-.9 0-1.3.1C6.1.2 5.3 0 4.4 0 2 0 0 2 0 4.4c0 .8.2 1.6.6 2.2 0 .2-.1.5-.1.8v.7c0 4.2 3.4 7.5 7.6 7.5.5 0 .9 0 1.4-.1.6.3 1.3.5 2.1.5 2.4 0 4.4-2 4.4-4.4 0-.7-.2-1.3-.5-1.9m-3.5 2c-.4.5-.9.9-1.6 1.2-.7.3-1.5.4-2.4.4-1.1 0-2-.2-2.7-.6-.5-.3-.9-.6-1.3-1.1-.3-.5-.5-.9-.5-1.4 0-.3.1-.5.3-.7.2-.2.5-.3.8-.3.3 0 .5.1.7.2.2.1.3.4.4.6.1.3.3.6.4.8.2.2.4.4.6.5.3.1.7.2 1.1.2.6 0 1.2-.1 1.5-.4.4-.3.6-.6.6-.9 0-.3-.1-.5-.3-.7 0-.2-.3-.3-.6-.4-.3-.1-.8-.3-1.4-.4-.8-.2-1.5-.4-2-.6-.5-.2-1-.5-1.3-.9-.1-.1-.2-.3-.3-.4-.1-.4-.2-.7-.2-1.1 0-.6.2-1.1.5-1.5.3-.4.8-.8 1.5-1 .6-.3 1.4-.4 2.2-.4.7 0 1.3.1 1.8.2.5.2.9.4 1.3.6.3.3.6.5.7.8.2.4.3.6.3.9 0 .3-.1.5-.3.7-.2.2-.5.3-.8.3-.3 0-.5-.1-.7-.2l-.5-.5c-.1-.4-.4-.7-.6-.9-.3-.2-.7-.3-1.3-.3-.5 0-1 .1-1.3.3-.4.3-.5.5-.5.8 0 .2 0 .3.2.4.1.1.3.2.5.3.2.1.4.2.6.2h.1c.2.2.5.3.9.4.6.1 1.2.2 1.7.4s.9.4 1.3.6c.3.2.6.5.8.9.2.4.3.8.3 1.3 0 .6-.2 1.2-.5 1.7"/></symbol><symbol viewBox="0 0 20 20" id="social-twitter" xmlns="http://www.w3.org/2000/svg"><path d="M19.4 1.8c-.8.5-1.7.8-2.6 1-.7-.8-1.8-1.4-3-1.4-2.3 0-4.1 1.9-4.1 4.3 0 .3 0 .7.1 1-3.4-.1-6.4-1.8-8.4-4.4C1 2.9.8 3.7.8 4.4c0 1.5.7 2.8 1.8 3.6C2 8 1.4 7.8.8 7.5v.1c0 2.1 1.4 3.8 3.3 4.2-.3.1-.7.1-1.1.1-.3 0-.5 0-.8-.1.5 1.7 2 2.9 3.8 3C4.6 16 2.8 16.6.9 16.6c-.3 0-.7 0-1-.1 1.8 1.2 4 1.9 6.3 1.9C13.8 18.5 18 12 18 6.3v-.6c.8-.6 1.5-1.4 2-2.2-.7.3-1.5.6-2.4.7.9-.5 1.5-1.4 1.8-2.4"/></symbol><symbol viewBox="0 0 23 20" id="social-yt" xmlns="http://www.w3.org/2000/svg"><path d="M9.1 12.9V6.5l6.2 3.2-6.2 3.2zm13.7-7.4s-.2-1.6-.9-2.3c-.9-.9-1.9-.9-2.3-1-3.2-.2-8-.2-8-.2s-4.8 0-8 .2c-.6.1-1.6.1-2.5 1-.6.7-.9 2.3-.9 2.3S0 7.3 0 9.1v1.7c0 1.8.2 3.7.2 3.7s.2 1.6.9 2.3c.9.9 2 .9 2.5 1 1.8.2 7.8.2 7.8.2s4.8 0 8-.2c.4-.1 1.4-.1 2.3-1 .7-.7.9-2.3.9-2.3s.2-1.8.2-3.7V9.1c.2-1.8 0-3.6 0-3.6z"/></symbol><symbol viewBox="0 0 24 22" id="star" xmlns="http://www.w3.org/2000/svg"><path d="M18.9 21.6L12 18l-6.9 3.6 1.3-7.7L.9 8.5l7.7-1.1 3.4-7 3.4 7 7.7 1.1-5.6 5.4 1.4 7.7zM4.1 9.6L8 13.4l-.9 5.4 4.9-2.6 4.9 2.6-.9-5.4 3.9-3.8-5.5-.8-2.4-5-2.4 5-5.5.8z"/></symbol><symbol viewBox="0 0 24 22" id="star-on" xmlns="http://www.w3.org/2000/svg"><path d="M4.1 9.6L8 13.4l-.9 5.4 4.9-2.6 4.9 2.6-.9-5.4 3.9-3.8-5.5-.8-2.4-5-2.4 5-5.5.8z"/><path d="M18.9 21.6L12 18l-6.9 3.6 1.3-7.7L.9 8.5l7.7-1.1 3.4-7 3.4 7 7.7 1.1-5.6 5.4 1.4 7.7zM4.1 9.6L8 13.4l-.9 5.4 4.9-2.6 4.9 2.6-.9-5.4 3.9-3.8-5.5-.8-2.4-5-2.4 5-5.5.8z"/></symbol><symbol viewBox="0 0 14 15" id="trash" xmlns="http://www.w3.org/2000/svg"><path d="M9.028 0H5.442a.93.93 0 0 0-.921.922v1.139H.901a.257.257 0 0 0-.251.251c0 .134.117.252.251.252h.939l.536 11.143c.017.687.569 1.206 1.256 1.206h7.189c.687 0 1.24-.536 1.257-1.206l.536-11.143h.938a.259.259 0 0 0 .252-.252c0-.134-.101-.251-.235-.251H9.95V.922A.93.93 0 0 0 9.028 0M8.65 1.3v.761a1.3 1.3 0 0 0 1.3 1.3h1.324l-.493 10.252H3.673L3.179 3.361h1.342a1.3 1.3 0 0 0 1.3-1.3V1.3H8.65"/><path d="M7.228 5.245a.257.257 0 0 0-.252.251v5.865c0 .134.117.251.252.251a.257.257 0 0 0 .25-.25V5.495a.257.257 0 0 0-.25-.25M5.125 5.245a.24.24 0 0 0-.235.268l.201 5.865c0 .134.118.234.252.234h.017a.238.238 0 0 0 .234-.268l-.2-5.864c0-.134-.118-.235-.269-.235M9.33 5.245a.26.26 0 0 0-.268.235l-.201 5.864c0 .134.1.252.234.268h.017c.134 0 .252-.1.252-.234l.2-5.865a.271.271 0 0 0-.234-.268"/></symbol><symbol viewBox="0 0 8 8" id="triangle" xmlns="http://www.w3.org/2000/svg"><path d="M4 0L0 8h8z"/></symbol><symbol viewBox="0 0 38 38" id="user" xmlns="http://www.w3.org/2000/svg"><title>Page 1</title><path d="M22.589 14.736A3.586 3.586 0 0 1 19 18.324a3.586 3.586 0 0 1-3.589-3.588A3.586 3.586 0 0 1 19 11.146a3.586 3.586 0 0 1 3.589 3.59zm2.533 0A6.127 6.127 0 0 0 19 8.613a6.127 6.127 0 0 0-6.122 6.123c0 1.857.802 3.504 2.11 4.602-3.124 1.52-5.277 4.686-5.277 8.402h2.533c0-3.716 3.04-6.756 6.756-6.756s6.756 3.04 6.756 6.756h2.533c0-3.716-2.153-6.882-5.278-8.402a6.083 6.083 0 0 0 2.111-4.602zM0 19c0 10.513 8.487 19 19 19s19-8.487 19-19S29.513 0 19 0 0 8.487 0 19zm35.467 0c0 9.078-7.39 16.467-16.467 16.467-9.078 0-16.467-7.39-16.467-16.467C2.533 9.922 9.923 2.533 19 2.533c9.078 0 16.467 7.39 16.467 16.467z"/></symbol><symbol viewBox="0 0 43 40" id="user2" xmlns="http://www.w3.org/2000/svg"><g transform="translate(-77 -1862)" fill="none" fill-rule="evenodd"><path d="M0 0h750v1957H0z"/><g transform="translate(77.221 1862)" fill-rule="nonzero"><ellipse cx="21.106" cy="20" rx="21.106" ry="20" fill="#666"/><g transform="translate(9.498 5)" fill="#FAFAFA"><path d="M11.608 14c-4.073 0-7.387-3.14-7.387-7s3.314-7 7.387-7c4.074 0 7.387 3.14 7.387 7s-3.313 7-7.387 7zm0-12c-2.91 0-5.276 2.243-5.276 5s2.367 5 5.276 5c2.91 0 5.277-2.243 5.277-5s-2.367-5-5.277-5zM11.608 15C8.202 15 3.233 19.864 0 24l1.055 1c2.843-2.525 6.316-5 10.553-5 4.237 0 7.71 2.475 10.553 5l1.056-1c-3.234-4.136-8.202-9-11.609-9z"/></g></g></g></symbol><symbol viewBox="0 0 43 40" id="user2-inverted" xmlns="http://www.w3.org/2000/svg"><g transform="translate(-77 -1530)" fill="none" fill-rule="evenodd"><path d="M0 0h750v1624H0z"/><g transform="translate(77.221 1530)" fill-rule="nonzero"><ellipse cx="21.106" cy="20" rx="21.106" ry="20" fill="#FAFAFA"/><g transform="translate(9.498 5)" fill="#666"><path d="M11.608 14c-4.073 0-7.387-3.14-7.387-7s3.314-7 7.387-7c4.074 0 7.387 3.14 7.387 7s-3.313 7-7.387 7zm0-12c-2.91 0-5.276 2.243-5.276 5s2.367 5 5.276 5c2.91 0 5.277-2.243 5.277-5s-2.367-5-5.277-5zM11.608 15C8.202 15 3.233 19.864 0 24l1.055 1c2.843-2.525 6.316-5 10.553-5 4.237 0 7.71 2.475 10.553 5l1.056-1c-3.234-4.136-8.202-9-11.609-9z"/></g></g></g></symbol><symbol viewBox="0 0 48 48" id="warning-price" xmlns="http://www.w3.org/2000/svg"><path class="decls-1" d="M4 28v-1a1 1 0 0 1 1-1h13.89a5.32 5.32 0 0 1-.39-2 5.5 5.5 0 0 1 7.65-5.06l-.78.79A4.8 4.8 0 0 0 24 19.5a4.51 4.51 0 0 0-4.5 4.5 4.46 4.46 0 0 0 .27 1.47l-.56.57-2.88 3H5A1 1 0 0 1 4 28zm1 6a1 1 0 0 0-1 1v1a1 1 0 0 0 1 1h3.83a2.17 2.17 0 0 1 .47-.8l2.15-2.2zm14.86-2.9L19 32l-1 1h1a1 1 0 0 0 1-1v-1zM5 33h7.43l1-1 .49-.5 1.43-1.5H5a1 1 0 0 0-1 1v1a1 1 0 0 0 1 1zm14 1h-2l-2.93 3H19a1 1 0 0 0 1-1v-1a1 1 0 0 0-1-1zm2.3-5.8l6.47-6.64.56-.57 3.9-4 .81-.83L38 11.1a1 1 0 0 0-1.43-1.4l-4.11 4.21-.57.59-2 2-.46.47-2.37 2.43-.36.37-6.47 6.64-.56.57-2.92 3-1 1-.48.5L13.82 33 10 36.9v.1a1 1 0 0 0 1.5 1.3l3.5-3.59.69-.71 1-1 2.82-2.89 1.5-1.54zm2.7.3a4.8 4.8 0 0 1-1.37-.23l-.78.79A5.5 5.5 0 0 0 29.5 24a5.57 5.57 0 0 0-.5-2.27l-.78.8A4.46 4.46 0 0 1 28.5 24a4.51 4.51 0 0 1-4.5 4.5zm18.5-15H37l-1 1h6.5a.5.5 0 0 1 .5.5v13a.5.5 0 0 1-.5.5H41v-11a1.5 1.5 0 0 0-1.5-1.5h-4.9l-1 1h5.9a.5.5 0 0 1 .5.5v13a.5.5 0 0 1-.5.5H21v1h18.5a1.5 1.5 0 0 0 1.5-1.5v-1h1.5A1.5 1.5 0 0 0 44 28V15a1.5 1.5 0 0 0-1.5-1.5zM8 17.5a.5.5 0 0 1 .5-.5H28l1-1H11v-1a.5.5 0 0 1 .5-.5h19l1-1h-20A1.5 1.5 0 0 0 10 15v1H8.5A1.5 1.5 0 0 0 7 17.5V25h1z"/></symbol><symbol viewBox="0 0 26 26" id="wheel" xmlns="http://www.w3.org/2000/svg"><path d="M12.1 12.5L6.5 6.8l.2-.2A9.1 9.1 0 0 1 13 4.1h.2v8H13c-.3 0-.5.1-.7.3l-.2.1zM7.2 6.8l5 5 .6-.3v-7c-2.1.1-4.1.9-5.6 2.3z"/><path d="M13.9 12.5l-.2-.2c-.2-.2-.4-.3-.7-.3h-.2V4h.2c2.4 0 4.6.9 6.3 2.6l.2.2-5.6 5.7zm-.7-.9c.2 0 .4.1.6.3l5-5c-1.5-1.4-3.5-2.3-5.6-2.3v7z"/><path d="M21.9 13.2h-8V13c0-.3-.1-.5-.3-.7l-.2-.2L19 6.5l.2.2c1.7 1.7 2.6 3.9 2.6 6.3v.2zm-7.5-.4h7c-.1-2.1-.9-4.1-2.3-5.6l-5 5c.2.1.3.3.3.6zM12 13.2H4V13c0-2.4.9-4.6 2.6-6.3l.2-.2 5.6 5.6-.2.2c-.1.2-.2.4-.2.7v.2zm-7.5-.4h7c0-.2.1-.4.3-.6l-5-5c-1.4 1.5-2.2 3.5-2.3 5.6zM13 21.9h-.2v-8h.2c.3 0 .5-.1.7-.3l.2-.2 5.6 5.6-.2.2c-1.7 1.8-3.9 2.7-6.3 2.7zm.2-7.5v7c2.1-.1 4.1-.9 5.6-2.3l-5-5c-.1.2-.3.3-.6.3z"/><path d="M19.2 19.4c-.1 0-.1 0-.2-.1L13.7 14c-.1-.1-.1-.2 0-.3.2-.2.3-.4.3-.7 0-.1.1-.2.2-.2h7.5c.1 0 .2.1.2.2 0 .7-.1 1.4-.3 2.1 0 .1-.6 2.8-2.4 4.2.1.1 0 .1 0 .1zm-5-5.5l5 5c1.5-1.3 2.1-3.8 2.1-3.8.1-.6.2-1.2.2-1.8h-7l-.3.6zM13.2 21.9H13c-2.4 0-4.6-.9-6.3-2.6l-.2-.2 5.6-5.6.2.2c.2.2.4.3.7.3h.2v7.9zm-6-2.7c1.5 1.4 3.5 2.3 5.6 2.3v-7c-.2 0-.4-.1-.6-.3l-5 5z"/><path d="M6.8 19.5l-.2-.2A9.1 9.1 0 0 1 4.1 13v-.2h8v.2c0 .3.1.5.3.7l.2.2-5.8 5.6zm-2.3-6.3c.1 2.1.9 4.1 2.3 5.6l5-5-.3-.6h-7z"/><path d="M13 26C5.8 26 0 20.2 0 13S5.8 0 13 0s13 5.8 13 13-5.8 13-13 13zm0-24.6C6.6 1.4 1.4 6.6 1.4 13c0 6.4 5.2 11.6 11.6 11.6 6.4 0 11.6-5.2 11.6-11.6 0-6.4-5.2-11.6-11.6-11.6z"/></symbol></svg>